<mxfile host="app.diagrams.net" modified="2024-01-26T16:00:44.269Z" agent="Mozilla/5.0 (X11; Linux aarch64; rv:109.0) Gecko/20100101 Firefox/115.0" etag="ATga2doGFsLZDGiyuyUW" version="22.1.21" type="device">
  <diagram name="Page-1" id="QCHrrWGRiwE1hAyAi8wt">
    <mxGraphModel dx="2074" dy="2187" grid="1" gridSize="10" guides="1" tooltips="1" connect="1" arrows="1" fold="1" page="1" pageScale="1" pageWidth="850" pageHeight="1100" math="0" shadow="0">
      <root>
        <mxCell id="0" />
        <mxCell id="1" parent="0" />
        <mxCell id="2kLd2aaRMBB2WDpWf91q-1" value="New Wallet - Network and name" style="strokeWidth=1;shadow=0;dashed=0;align=center;html=1;shape=mxgraph.mockup.containers.window;align=left;verticalAlign=top;spacingLeft=8;strokeColor2=#008cff;strokeColor3=#c4c4c4;fontColor=#666666;mainText=;fontSize=17;labelBackgroundColor=none;whiteSpace=wrap;" parent="1" vertex="1">
          <mxGeometry x="40" y="40" width="600" height="200" as="geometry" />
        </mxCell>
        <mxCell id="2kLd2aaRMBB2WDpWf91q-2" value="&lt;div style=&quot;font-size: 14px;&quot; align=&quot;right&quot;&gt;Network:&lt;/div&gt;" style="text;html=1;strokeColor=none;fillColor=none;align=right;verticalAlign=middle;whiteSpace=wrap;rounded=0;fontSize=14;" parent="1" vertex="1">
          <mxGeometry x="60" y="90" width="140" height="30" as="geometry" />
        </mxCell>
        <mxCell id="2kLd2aaRMBB2WDpWf91q-3" value="Ethereum" style="strokeWidth=1;shadow=0;dashed=0;align=center;html=1;shape=mxgraph.mockup.forms.comboBox;strokeColor=#999999;fillColor=#ddeeff;align=left;fillColor2=#aaddff;mainText=;fontColor=#666666;fontSize=17;spacingLeft=3;" parent="1" vertex="1">
          <mxGeometry x="210" y="90" width="410" height="30" as="geometry" />
        </mxCell>
        <mxCell id="2kLd2aaRMBB2WDpWf91q-4" value="Wallet name:" style="text;html=1;strokeColor=none;fillColor=none;align=right;verticalAlign=middle;whiteSpace=wrap;rounded=0;fontSize=14;" parent="1" vertex="1">
          <mxGeometry x="60" y="130" width="140" height="30" as="geometry" />
        </mxCell>
        <mxCell id="2kLd2aaRMBB2WDpWf91q-5" value="MyWallet" style="strokeWidth=1;shadow=0;dashed=0;align=center;html=1;shape=mxgraph.mockup.text.textBox;fontColor=#666666;align=left;fontSize=17;spacingLeft=4;spacingTop=-3;whiteSpace=wrap;strokeColor=#666666;mainText=" parent="1" vertex="1">
          <mxGeometry x="210" y="130" width="410" height="30" as="geometry" />
        </mxCell>
        <mxCell id="2kLd2aaRMBB2WDpWf91q-10" value="New Wallet - Restore or create wallet" style="strokeWidth=1;shadow=0;dashed=0;align=center;html=1;shape=mxgraph.mockup.containers.window;align=left;verticalAlign=top;spacingLeft=8;strokeColor2=#008cff;strokeColor3=#c4c4c4;fontColor=#666666;mainText=;fontSize=17;labelBackgroundColor=none;whiteSpace=wrap;" parent="1" vertex="1">
          <mxGeometry x="40" y="320" width="600" height="280" as="geometry" />
        </mxCell>
        <mxCell id="2kLd2aaRMBB2WDpWf91q-11" style="edgeStyle=orthogonalEdgeStyle;rounded=0;orthogonalLoop=1;jettySize=auto;html=1;entryX=0.5;entryY=0;entryDx=0;entryDy=0;entryPerimeter=0;" parent="1" source="2kLd2aaRMBB2WDpWf91q-1" target="2kLd2aaRMBB2WDpWf91q-10" edge="1">
          <mxGeometry relative="1" as="geometry" />
        </mxCell>
        <mxCell id="2kLd2aaRMBB2WDpWf91q-12" value="Select how you would like to create the new wallet" style="text;html=1;strokeColor=none;fillColor=none;align=left;verticalAlign=middle;whiteSpace=wrap;rounded=0;fontSize=14;" parent="1" vertex="1">
          <mxGeometry x="60" y="370" width="560" height="30" as="geometry" />
        </mxCell>
        <mxCell id="2kLd2aaRMBB2WDpWf91q-13" value="" style="strokeWidth=1;shadow=0;dashed=0;align=center;html=1;shape=mxgraph.mockup.forms.rrect;rSize=0;strokeColor=#999999;fillColor=#ffffff;recursiveResize=0;" parent="1" vertex="1">
          <mxGeometry x="60" y="400" width="560" height="120" as="geometry" />
        </mxCell>
        <mxCell id="2kLd2aaRMBB2WDpWf91q-14" value="New software wallet" style="shape=ellipse;rSize=0;fillColor=#eeeeee;strokeColor=#999999;gradientColor=#cccccc;html=1;align=left;spacingLeft=4;fontSize=17;fontColor=#666666;labelPosition=right;" parent="2kLd2aaRMBB2WDpWf91q-13" vertex="1">
          <mxGeometry x="8" y="7.5" width="15" height="15" as="geometry" />
        </mxCell>
        <mxCell id="2kLd2aaRMBB2WDpWf91q-15" value="Restore software wallet" style="shape=ellipse;rSize=0;fillColor=#eeeeee;strokeColor=#999999;gradientColor=#cccccc;html=1;align=left;spacingLeft=4;fontSize=17;fontColor=#666666;labelPosition=right;" parent="2kLd2aaRMBB2WDpWf91q-13" vertex="1">
          <mxGeometry x="8" y="37.5" width="15" height="15" as="geometry" />
        </mxCell>
        <mxCell id="2kLd2aaRMBB2WDpWf91q-16" value="New hardware wallet" style="shape=ellipse;rSize=0;fillColor=#aaaaaa;strokeColor=#444444;gradientColor=#666666;html=1;align=left;spacingLeft=4;fontSize=17;fontColor=#008cff;labelPosition=right;" parent="2kLd2aaRMBB2WDpWf91q-13" vertex="1">
          <mxGeometry x="8" y="67.5" width="15" height="15" as="geometry" />
        </mxCell>
        <mxCell id="2kLd2aaRMBB2WDpWf91q-17" value="" style="shape=ellipse;fillColor=#444444;strokeColor=none;html=1;" parent="2kLd2aaRMBB2WDpWf91q-16" vertex="1">
          <mxGeometry x="3" y="3" width="9" height="9" as="geometry" />
        </mxCell>
        <mxCell id="2kLd2aaRMBB2WDpWf91q-18" value="Restore hardware wallet" style="shape=ellipse;rSize=0;fillColor=#eeeeee;strokeColor=#999999;gradientColor=#cccccc;html=1;align=left;spacingLeft=4;fontSize=17;fontColor=#666666;labelPosition=right;" parent="2kLd2aaRMBB2WDpWf91q-13" vertex="1">
          <mxGeometry x="8" y="97.5" width="15" height="15" as="geometry" />
        </mxCell>
        <mxCell id="2kLd2aaRMBB2WDpWf91q-210" style="edgeStyle=orthogonalEdgeStyle;rounded=0;orthogonalLoop=1;jettySize=auto;html=1;" parent="1" source="2kLd2aaRMBB2WDpWf91q-23" target="2kLd2aaRMBB2WDpWf91q-118" edge="1">
          <mxGeometry relative="1" as="geometry" />
        </mxCell>
        <mxCell id="2kLd2aaRMBB2WDpWf91q-23" value="New Wallet - New software wallet" style="strokeWidth=1;shadow=0;dashed=0;align=center;html=1;shape=mxgraph.mockup.containers.window;align=left;verticalAlign=top;spacingLeft=8;strokeColor2=#008cff;strokeColor3=#c4c4c4;fontColor=#666666;mainText=;fontSize=17;labelBackgroundColor=none;whiteSpace=wrap;" parent="1" vertex="1">
          <mxGeometry x="40" y="680" width="600" height="520" as="geometry" />
        </mxCell>
        <mxCell id="2kLd2aaRMBB2WDpWf91q-24" value="Mnemonic size:" style="text;html=1;strokeColor=none;fillColor=none;align=right;verticalAlign=middle;whiteSpace=wrap;rounded=0;fontSize=14;" parent="1" vertex="1">
          <mxGeometry x="60" y="730" width="140" height="30" as="geometry" />
        </mxCell>
        <mxCell id="2kLd2aaRMBB2WDpWf91q-25" value="24 words + passphrase" style="strokeWidth=1;shadow=0;dashed=0;align=center;html=1;shape=mxgraph.mockup.forms.comboBox;strokeColor=#999999;fillColor=#ddeeff;align=left;fillColor2=#aaddff;mainText=;fontColor=#666666;fontSize=17;spacingLeft=3;" parent="1" vertex="1">
          <mxGeometry x="210" y="730" width="220" height="30" as="geometry" />
        </mxCell>
        <mxCell id="2kLd2aaRMBB2WDpWf91q-26" value="New mnemonic" style="strokeWidth=1;shadow=0;dashed=0;align=center;html=1;shape=mxgraph.mockup.buttons.button;strokeColor=#666666;fontColor=#ffffff;mainText=;buttonStyle=round;fontSize=17;fontStyle=1;fillColor=#008cff;whiteSpace=wrap;" parent="1" vertex="1">
          <mxGeometry x="480" y="730" width="140" height="30" as="geometry" />
        </mxCell>
        <mxCell id="2kLd2aaRMBB2WDpWf91q-109" value="" style="group" parent="1" vertex="1" connectable="0">
          <mxGeometry x="70" y="860" width="500" height="230" as="geometry" />
        </mxCell>
        <mxCell id="2kLd2aaRMBB2WDpWf91q-39" value="" style="group" parent="2kLd2aaRMBB2WDpWf91q-109" vertex="1" connectable="0">
          <mxGeometry width="500" height="30" as="geometry" />
        </mxCell>
        <mxCell id="2kLd2aaRMBB2WDpWf91q-29" value="" style="group" parent="2kLd2aaRMBB2WDpWf91q-39" vertex="1" connectable="0">
          <mxGeometry width="110" height="30" as="geometry" />
        </mxCell>
        <mxCell id="2kLd2aaRMBB2WDpWf91q-27" value="1:" style="text;html=1;strokeColor=none;fillColor=none;align=right;verticalAlign=middle;whiteSpace=wrap;rounded=0;fontSize=14;" parent="2kLd2aaRMBB2WDpWf91q-29" vertex="1">
          <mxGeometry width="30" height="30" as="geometry" />
        </mxCell>
        <mxCell id="2kLd2aaRMBB2WDpWf91q-28" value="dice" style="strokeWidth=1;shadow=0;dashed=0;align=center;html=1;shape=mxgraph.mockup.text.textBox;fontColor=#666666;align=left;fontSize=17;spacingLeft=4;spacingTop=-3;whiteSpace=wrap;strokeColor=#666666;mainText=" parent="2kLd2aaRMBB2WDpWf91q-29" vertex="1">
          <mxGeometry x="30" width="80" height="30" as="geometry" />
        </mxCell>
        <mxCell id="2kLd2aaRMBB2WDpWf91q-30" value="" style="group" parent="2kLd2aaRMBB2WDpWf91q-39" vertex="1" connectable="0">
          <mxGeometry x="130" width="110" height="30" as="geometry" />
        </mxCell>
        <mxCell id="2kLd2aaRMBB2WDpWf91q-31" value="2:" style="text;html=1;strokeColor=none;fillColor=none;align=right;verticalAlign=middle;whiteSpace=wrap;rounded=0;fontSize=14;" parent="2kLd2aaRMBB2WDpWf91q-30" vertex="1">
          <mxGeometry width="30" height="30" as="geometry" />
        </mxCell>
        <mxCell id="2kLd2aaRMBB2WDpWf91q-32" value="equal" style="strokeWidth=1;shadow=0;dashed=0;align=center;html=1;shape=mxgraph.mockup.text.textBox;fontColor=#666666;align=left;fontSize=17;spacingLeft=4;spacingTop=-3;whiteSpace=wrap;strokeColor=#666666;mainText=" parent="2kLd2aaRMBB2WDpWf91q-30" vertex="1">
          <mxGeometry x="30" width="80" height="30" as="geometry" />
        </mxCell>
        <mxCell id="2kLd2aaRMBB2WDpWf91q-33" value="" style="group" parent="2kLd2aaRMBB2WDpWf91q-39" vertex="1" connectable="0">
          <mxGeometry x="260" width="110" height="30" as="geometry" />
        </mxCell>
        <mxCell id="2kLd2aaRMBB2WDpWf91q-34" value="3:" style="text;html=1;strokeColor=none;fillColor=none;align=right;verticalAlign=middle;whiteSpace=wrap;rounded=0;fontSize=14;" parent="2kLd2aaRMBB2WDpWf91q-33" vertex="1">
          <mxGeometry width="30" height="30" as="geometry" />
        </mxCell>
        <mxCell id="2kLd2aaRMBB2WDpWf91q-35" value="case" style="strokeWidth=1;shadow=0;dashed=0;align=center;html=1;shape=mxgraph.mockup.text.textBox;fontColor=#666666;align=left;fontSize=17;spacingLeft=4;spacingTop=-3;whiteSpace=wrap;strokeColor=#666666;mainText=" parent="2kLd2aaRMBB2WDpWf91q-33" vertex="1">
          <mxGeometry x="30" width="80" height="30" as="geometry" />
        </mxCell>
        <mxCell id="2kLd2aaRMBB2WDpWf91q-36" value="" style="group" parent="2kLd2aaRMBB2WDpWf91q-39" vertex="1" connectable="0">
          <mxGeometry x="390" width="110" height="30" as="geometry" />
        </mxCell>
        <mxCell id="2kLd2aaRMBB2WDpWf91q-37" value="4:" style="text;html=1;strokeColor=none;fillColor=none;align=right;verticalAlign=middle;whiteSpace=wrap;rounded=0;fontSize=14;" parent="2kLd2aaRMBB2WDpWf91q-36" vertex="1">
          <mxGeometry width="30" height="30" as="geometry" />
        </mxCell>
        <mxCell id="2kLd2aaRMBB2WDpWf91q-38" value="spider" style="strokeWidth=1;shadow=0;dashed=0;align=center;html=1;shape=mxgraph.mockup.text.textBox;fontColor=#666666;align=left;fontSize=17;spacingLeft=4;spacingTop=-3;whiteSpace=wrap;strokeColor=#666666;mainText=" parent="2kLd2aaRMBB2WDpWf91q-36" vertex="1">
          <mxGeometry x="30" width="80" height="30" as="geometry" />
        </mxCell>
        <mxCell id="2kLd2aaRMBB2WDpWf91q-40" value="" style="group" parent="2kLd2aaRMBB2WDpWf91q-109" vertex="1" connectable="0">
          <mxGeometry y="40" width="500" height="30" as="geometry" />
        </mxCell>
        <mxCell id="2kLd2aaRMBB2WDpWf91q-41" value="" style="group" parent="2kLd2aaRMBB2WDpWf91q-40" vertex="1" connectable="0">
          <mxGeometry width="110" height="30" as="geometry" />
        </mxCell>
        <mxCell id="2kLd2aaRMBB2WDpWf91q-42" value="5:" style="text;html=1;strokeColor=none;fillColor=none;align=right;verticalAlign=middle;whiteSpace=wrap;rounded=0;fontSize=14;" parent="2kLd2aaRMBB2WDpWf91q-41" vertex="1">
          <mxGeometry width="30" height="30" as="geometry" />
        </mxCell>
        <mxCell id="2kLd2aaRMBB2WDpWf91q-43" value="victory" style="strokeWidth=1;shadow=0;dashed=0;align=center;html=1;shape=mxgraph.mockup.text.textBox;fontColor=#666666;align=left;fontSize=17;spacingLeft=4;spacingTop=-3;whiteSpace=wrap;strokeColor=#666666;mainText=" parent="2kLd2aaRMBB2WDpWf91q-41" vertex="1">
          <mxGeometry x="30" width="80" height="30" as="geometry" />
        </mxCell>
        <mxCell id="2kLd2aaRMBB2WDpWf91q-44" value="" style="group" parent="2kLd2aaRMBB2WDpWf91q-40" vertex="1" connectable="0">
          <mxGeometry x="130" width="110" height="30" as="geometry" />
        </mxCell>
        <mxCell id="2kLd2aaRMBB2WDpWf91q-45" value="6:" style="text;html=1;strokeColor=none;fillColor=none;align=right;verticalAlign=middle;whiteSpace=wrap;rounded=0;fontSize=14;" parent="2kLd2aaRMBB2WDpWf91q-44" vertex="1">
          <mxGeometry width="30" height="30" as="geometry" />
        </mxCell>
        <mxCell id="2kLd2aaRMBB2WDpWf91q-46" value="firm" style="strokeWidth=1;shadow=0;dashed=0;align=center;html=1;shape=mxgraph.mockup.text.textBox;fontColor=#666666;align=left;fontSize=17;spacingLeft=4;spacingTop=-3;whiteSpace=wrap;strokeColor=#666666;mainText=" parent="2kLd2aaRMBB2WDpWf91q-44" vertex="1">
          <mxGeometry x="30" width="80" height="30" as="geometry" />
        </mxCell>
        <mxCell id="2kLd2aaRMBB2WDpWf91q-47" value="" style="group" parent="2kLd2aaRMBB2WDpWf91q-40" vertex="1" connectable="0">
          <mxGeometry x="260" width="110" height="30" as="geometry" />
        </mxCell>
        <mxCell id="2kLd2aaRMBB2WDpWf91q-48" value="7:" style="text;html=1;strokeColor=none;fillColor=none;align=right;verticalAlign=middle;whiteSpace=wrap;rounded=0;fontSize=14;" parent="2kLd2aaRMBB2WDpWf91q-47" vertex="1">
          <mxGeometry width="30" height="30" as="geometry" />
        </mxCell>
        <mxCell id="2kLd2aaRMBB2WDpWf91q-49" value="scan" style="strokeWidth=1;shadow=0;dashed=0;align=center;html=1;shape=mxgraph.mockup.text.textBox;fontColor=#666666;align=left;fontSize=17;spacingLeft=4;spacingTop=-3;whiteSpace=wrap;strokeColor=#666666;mainText=" parent="2kLd2aaRMBB2WDpWf91q-47" vertex="1">
          <mxGeometry x="30" width="80" height="30" as="geometry" />
        </mxCell>
        <mxCell id="2kLd2aaRMBB2WDpWf91q-50" value="" style="group" parent="2kLd2aaRMBB2WDpWf91q-40" vertex="1" connectable="0">
          <mxGeometry x="390" width="110" height="30" as="geometry" />
        </mxCell>
        <mxCell id="2kLd2aaRMBB2WDpWf91q-51" value="8:" style="text;html=1;strokeColor=none;fillColor=none;align=right;verticalAlign=middle;whiteSpace=wrap;rounded=0;fontSize=14;" parent="2kLd2aaRMBB2WDpWf91q-50" vertex="1">
          <mxGeometry width="30" height="30" as="geometry" />
        </mxCell>
        <mxCell id="2kLd2aaRMBB2WDpWf91q-52" value="reject" style="strokeWidth=1;shadow=0;dashed=0;align=center;html=1;shape=mxgraph.mockup.text.textBox;fontColor=#666666;align=left;fontSize=17;spacingLeft=4;spacingTop=-3;whiteSpace=wrap;strokeColor=#666666;mainText=" parent="2kLd2aaRMBB2WDpWf91q-50" vertex="1">
          <mxGeometry x="30" width="80" height="30" as="geometry" />
        </mxCell>
        <mxCell id="2kLd2aaRMBB2WDpWf91q-53" value="" style="group" parent="2kLd2aaRMBB2WDpWf91q-109" vertex="1" connectable="0">
          <mxGeometry y="80" width="500" height="30" as="geometry" />
        </mxCell>
        <mxCell id="2kLd2aaRMBB2WDpWf91q-54" value="" style="group" parent="2kLd2aaRMBB2WDpWf91q-53" vertex="1" connectable="0">
          <mxGeometry width="110" height="30" as="geometry" />
        </mxCell>
        <mxCell id="2kLd2aaRMBB2WDpWf91q-55" value="9:" style="text;html=1;strokeColor=none;fillColor=none;align=right;verticalAlign=middle;whiteSpace=wrap;rounded=0;fontSize=14;" parent="2kLd2aaRMBB2WDpWf91q-54" vertex="1">
          <mxGeometry width="30" height="30" as="geometry" />
        </mxCell>
        <mxCell id="2kLd2aaRMBB2WDpWf91q-56" value="pupil" style="strokeWidth=1;shadow=0;dashed=0;align=center;html=1;shape=mxgraph.mockup.text.textBox;fontColor=#666666;align=left;fontSize=17;spacingLeft=4;spacingTop=-3;whiteSpace=wrap;strokeColor=#666666;mainText=" parent="2kLd2aaRMBB2WDpWf91q-54" vertex="1">
          <mxGeometry x="30" width="80" height="30" as="geometry" />
        </mxCell>
        <mxCell id="2kLd2aaRMBB2WDpWf91q-57" value="" style="group" parent="2kLd2aaRMBB2WDpWf91q-53" vertex="1" connectable="0">
          <mxGeometry x="130" width="110" height="30" as="geometry" />
        </mxCell>
        <mxCell id="2kLd2aaRMBB2WDpWf91q-58" value="10:" style="text;html=1;strokeColor=none;fillColor=none;align=right;verticalAlign=middle;whiteSpace=wrap;rounded=0;fontSize=14;" parent="2kLd2aaRMBB2WDpWf91q-57" vertex="1">
          <mxGeometry width="30" height="30" as="geometry" />
        </mxCell>
        <mxCell id="2kLd2aaRMBB2WDpWf91q-59" value="promote" style="strokeWidth=1;shadow=0;dashed=0;align=center;html=1;shape=mxgraph.mockup.text.textBox;fontColor=#666666;align=left;fontSize=17;spacingLeft=4;spacingTop=-3;whiteSpace=wrap;strokeColor=#666666;mainText=" parent="2kLd2aaRMBB2WDpWf91q-57" vertex="1">
          <mxGeometry x="30" width="80" height="30" as="geometry" />
        </mxCell>
        <mxCell id="2kLd2aaRMBB2WDpWf91q-60" value="" style="group" parent="2kLd2aaRMBB2WDpWf91q-53" vertex="1" connectable="0">
          <mxGeometry x="260" width="110" height="30" as="geometry" />
        </mxCell>
        <mxCell id="2kLd2aaRMBB2WDpWf91q-61" value="11:" style="text;html=1;strokeColor=none;fillColor=none;align=right;verticalAlign=middle;whiteSpace=wrap;rounded=0;fontSize=14;" parent="2kLd2aaRMBB2WDpWf91q-60" vertex="1">
          <mxGeometry width="30" height="30" as="geometry" />
        </mxCell>
        <mxCell id="2kLd2aaRMBB2WDpWf91q-62" value="grain" style="strokeWidth=1;shadow=0;dashed=0;align=center;html=1;shape=mxgraph.mockup.text.textBox;fontColor=#666666;align=left;fontSize=17;spacingLeft=4;spacingTop=-3;whiteSpace=wrap;strokeColor=#666666;mainText=" parent="2kLd2aaRMBB2WDpWf91q-60" vertex="1">
          <mxGeometry x="30" width="80" height="30" as="geometry" />
        </mxCell>
        <mxCell id="2kLd2aaRMBB2WDpWf91q-63" value="" style="group" parent="2kLd2aaRMBB2WDpWf91q-53" vertex="1" connectable="0">
          <mxGeometry x="390" width="110" height="30" as="geometry" />
        </mxCell>
        <mxCell id="2kLd2aaRMBB2WDpWf91q-64" value="12:" style="text;html=1;strokeColor=none;fillColor=none;align=right;verticalAlign=middle;whiteSpace=wrap;rounded=0;fontSize=14;" parent="2kLd2aaRMBB2WDpWf91q-63" vertex="1">
          <mxGeometry width="30" height="30" as="geometry" />
        </mxCell>
        <mxCell id="2kLd2aaRMBB2WDpWf91q-65" value="display" style="strokeWidth=1;shadow=0;dashed=0;align=center;html=1;shape=mxgraph.mockup.text.textBox;fontColor=#666666;align=left;fontSize=17;spacingLeft=4;spacingTop=-3;whiteSpace=wrap;strokeColor=#666666;mainText=" parent="2kLd2aaRMBB2WDpWf91q-63" vertex="1">
          <mxGeometry x="30" width="80" height="30" as="geometry" />
        </mxCell>
        <mxCell id="2kLd2aaRMBB2WDpWf91q-66" value="" style="group" parent="2kLd2aaRMBB2WDpWf91q-109" vertex="1" connectable="0">
          <mxGeometry y="120" width="500" height="30" as="geometry" />
        </mxCell>
        <mxCell id="2kLd2aaRMBB2WDpWf91q-67" value="" style="group" parent="2kLd2aaRMBB2WDpWf91q-66" vertex="1" connectable="0">
          <mxGeometry width="110" height="30" as="geometry" />
        </mxCell>
        <mxCell id="2kLd2aaRMBB2WDpWf91q-68" value="13:" style="text;html=1;strokeColor=none;fillColor=none;align=right;verticalAlign=middle;whiteSpace=wrap;rounded=0;fontSize=14;" parent="2kLd2aaRMBB2WDpWf91q-67" vertex="1">
          <mxGeometry width="30" height="30" as="geometry" />
        </mxCell>
        <mxCell id="2kLd2aaRMBB2WDpWf91q-69" value="law" style="strokeWidth=1;shadow=0;dashed=0;align=center;html=1;shape=mxgraph.mockup.text.textBox;fontColor=#666666;align=left;fontSize=17;spacingLeft=4;spacingTop=-3;whiteSpace=wrap;strokeColor=#666666;mainText=" parent="2kLd2aaRMBB2WDpWf91q-67" vertex="1">
          <mxGeometry x="30" width="80" height="30" as="geometry" />
        </mxCell>
        <mxCell id="2kLd2aaRMBB2WDpWf91q-70" value="" style="group" parent="2kLd2aaRMBB2WDpWf91q-66" vertex="1" connectable="0">
          <mxGeometry x="130" width="110" height="30" as="geometry" />
        </mxCell>
        <mxCell id="2kLd2aaRMBB2WDpWf91q-71" value="14:" style="text;html=1;strokeColor=none;fillColor=none;align=right;verticalAlign=middle;whiteSpace=wrap;rounded=0;fontSize=14;" parent="2kLd2aaRMBB2WDpWf91q-70" vertex="1">
          <mxGeometry width="30" height="30" as="geometry" />
        </mxCell>
        <mxCell id="2kLd2aaRMBB2WDpWf91q-72" value="oblige" style="strokeWidth=1;shadow=0;dashed=0;align=center;html=1;shape=mxgraph.mockup.text.textBox;fontColor=#666666;align=left;fontSize=17;spacingLeft=4;spacingTop=-3;whiteSpace=wrap;strokeColor=#666666;mainText=" parent="2kLd2aaRMBB2WDpWf91q-70" vertex="1">
          <mxGeometry x="30" width="80" height="30" as="geometry" />
        </mxCell>
        <mxCell id="2kLd2aaRMBB2WDpWf91q-73" value="" style="group" parent="2kLd2aaRMBB2WDpWf91q-66" vertex="1" connectable="0">
          <mxGeometry x="260" width="110" height="30" as="geometry" />
        </mxCell>
        <mxCell id="2kLd2aaRMBB2WDpWf91q-74" value="15:" style="text;html=1;strokeColor=none;fillColor=none;align=right;verticalAlign=middle;whiteSpace=wrap;rounded=0;fontSize=14;" parent="2kLd2aaRMBB2WDpWf91q-73" vertex="1">
          <mxGeometry width="30" height="30" as="geometry" />
        </mxCell>
        <mxCell id="2kLd2aaRMBB2WDpWf91q-75" value="sword" style="strokeWidth=1;shadow=0;dashed=0;align=center;html=1;shape=mxgraph.mockup.text.textBox;fontColor=#666666;align=left;fontSize=17;spacingLeft=4;spacingTop=-3;whiteSpace=wrap;strokeColor=#666666;mainText=" parent="2kLd2aaRMBB2WDpWf91q-73" vertex="1">
          <mxGeometry x="30" width="80" height="30" as="geometry" />
        </mxCell>
        <mxCell id="2kLd2aaRMBB2WDpWf91q-76" value="" style="group" parent="2kLd2aaRMBB2WDpWf91q-66" vertex="1" connectable="0">
          <mxGeometry x="390" width="110" height="30" as="geometry" />
        </mxCell>
        <mxCell id="2kLd2aaRMBB2WDpWf91q-77" value="16:" style="text;html=1;strokeColor=none;fillColor=none;align=right;verticalAlign=middle;whiteSpace=wrap;rounded=0;fontSize=14;" parent="2kLd2aaRMBB2WDpWf91q-76" vertex="1">
          <mxGeometry width="30" height="30" as="geometry" />
        </mxCell>
        <mxCell id="2kLd2aaRMBB2WDpWf91q-78" value="flavor" style="strokeWidth=1;shadow=0;dashed=0;align=center;html=1;shape=mxgraph.mockup.text.textBox;fontColor=#666666;align=left;fontSize=17;spacingLeft=4;spacingTop=-3;whiteSpace=wrap;strokeColor=#666666;mainText=" parent="2kLd2aaRMBB2WDpWf91q-76" vertex="1">
          <mxGeometry x="30" width="80" height="30" as="geometry" />
        </mxCell>
        <mxCell id="2kLd2aaRMBB2WDpWf91q-79" value="" style="group" parent="2kLd2aaRMBB2WDpWf91q-109" vertex="1" connectable="0">
          <mxGeometry y="160" width="500" height="30" as="geometry" />
        </mxCell>
        <mxCell id="2kLd2aaRMBB2WDpWf91q-80" value="" style="group" parent="2kLd2aaRMBB2WDpWf91q-79" vertex="1" connectable="0">
          <mxGeometry width="110" height="30" as="geometry" />
        </mxCell>
        <mxCell id="2kLd2aaRMBB2WDpWf91q-81" value="17:" style="text;html=1;strokeColor=none;fillColor=none;align=right;verticalAlign=middle;whiteSpace=wrap;rounded=0;fontSize=14;" parent="2kLd2aaRMBB2WDpWf91q-80" vertex="1">
          <mxGeometry width="30" height="30" as="geometry" />
        </mxCell>
        <mxCell id="2kLd2aaRMBB2WDpWf91q-82" value="wolf" style="strokeWidth=1;shadow=0;dashed=0;align=center;html=1;shape=mxgraph.mockup.text.textBox;fontColor=#666666;align=left;fontSize=17;spacingLeft=4;spacingTop=-3;whiteSpace=wrap;strokeColor=#666666;mainText=" parent="2kLd2aaRMBB2WDpWf91q-80" vertex="1">
          <mxGeometry x="30" width="80" height="30" as="geometry" />
        </mxCell>
        <mxCell id="2kLd2aaRMBB2WDpWf91q-83" value="" style="group" parent="2kLd2aaRMBB2WDpWf91q-79" vertex="1" connectable="0">
          <mxGeometry x="130" width="110" height="30" as="geometry" />
        </mxCell>
        <mxCell id="2kLd2aaRMBB2WDpWf91q-84" value="18:" style="text;html=1;strokeColor=none;fillColor=none;align=right;verticalAlign=middle;whiteSpace=wrap;rounded=0;fontSize=14;" parent="2kLd2aaRMBB2WDpWf91q-83" vertex="1">
          <mxGeometry width="30" height="30" as="geometry" />
        </mxCell>
        <mxCell id="2kLd2aaRMBB2WDpWf91q-85" value="stairs" style="strokeWidth=1;shadow=0;dashed=0;align=center;html=1;shape=mxgraph.mockup.text.textBox;fontColor=#666666;align=left;fontSize=17;spacingLeft=4;spacingTop=-3;whiteSpace=wrap;strokeColor=#666666;mainText=" parent="2kLd2aaRMBB2WDpWf91q-83" vertex="1">
          <mxGeometry x="30" width="80" height="30" as="geometry" />
        </mxCell>
        <mxCell id="2kLd2aaRMBB2WDpWf91q-86" value="" style="group" parent="2kLd2aaRMBB2WDpWf91q-79" vertex="1" connectable="0">
          <mxGeometry x="260" width="110" height="30" as="geometry" />
        </mxCell>
        <mxCell id="2kLd2aaRMBB2WDpWf91q-87" value="19:" style="text;html=1;strokeColor=none;fillColor=none;align=right;verticalAlign=middle;whiteSpace=wrap;rounded=0;fontSize=14;" parent="2kLd2aaRMBB2WDpWf91q-86" vertex="1">
          <mxGeometry width="30" height="30" as="geometry" />
        </mxCell>
        <mxCell id="2kLd2aaRMBB2WDpWf91q-88" value="surge" style="strokeWidth=1;shadow=0;dashed=0;align=center;html=1;shape=mxgraph.mockup.text.textBox;fontColor=#666666;align=left;fontSize=17;spacingLeft=4;spacingTop=-3;whiteSpace=wrap;strokeColor=#666666;mainText=" parent="2kLd2aaRMBB2WDpWf91q-86" vertex="1">
          <mxGeometry x="30" width="80" height="30" as="geometry" />
        </mxCell>
        <mxCell id="2kLd2aaRMBB2WDpWf91q-89" value="" style="group" parent="2kLd2aaRMBB2WDpWf91q-79" vertex="1" connectable="0">
          <mxGeometry x="390" width="110" height="30" as="geometry" />
        </mxCell>
        <mxCell id="2kLd2aaRMBB2WDpWf91q-90" value="20:" style="text;html=1;strokeColor=none;fillColor=none;align=right;verticalAlign=middle;whiteSpace=wrap;rounded=0;fontSize=14;" parent="2kLd2aaRMBB2WDpWf91q-89" vertex="1">
          <mxGeometry width="30" height="30" as="geometry" />
        </mxCell>
        <mxCell id="2kLd2aaRMBB2WDpWf91q-91" value="kind" style="strokeWidth=1;shadow=0;dashed=0;align=center;html=1;shape=mxgraph.mockup.text.textBox;fontColor=#666666;align=left;fontSize=17;spacingLeft=4;spacingTop=-3;whiteSpace=wrap;strokeColor=#666666;mainText=" parent="2kLd2aaRMBB2WDpWf91q-89" vertex="1">
          <mxGeometry x="30" width="80" height="30" as="geometry" />
        </mxCell>
        <mxCell id="2kLd2aaRMBB2WDpWf91q-92" value="" style="group" parent="2kLd2aaRMBB2WDpWf91q-109" vertex="1" connectable="0">
          <mxGeometry y="200" width="500" height="30" as="geometry" />
        </mxCell>
        <mxCell id="2kLd2aaRMBB2WDpWf91q-93" value="" style="group" parent="2kLd2aaRMBB2WDpWf91q-92" vertex="1" connectable="0">
          <mxGeometry width="110" height="30" as="geometry" />
        </mxCell>
        <mxCell id="2kLd2aaRMBB2WDpWf91q-94" value="21:" style="text;html=1;strokeColor=none;fillColor=none;align=right;verticalAlign=middle;whiteSpace=wrap;rounded=0;fontSize=14;" parent="2kLd2aaRMBB2WDpWf91q-93" vertex="1">
          <mxGeometry width="30" height="30" as="geometry" />
        </mxCell>
        <mxCell id="2kLd2aaRMBB2WDpWf91q-95" value="crush" style="strokeWidth=1;shadow=0;dashed=0;align=center;html=1;shape=mxgraph.mockup.text.textBox;fontColor=#666666;align=left;fontSize=17;spacingLeft=4;spacingTop=-3;whiteSpace=wrap;strokeColor=#666666;mainText=" parent="2kLd2aaRMBB2WDpWf91q-93" vertex="1">
          <mxGeometry x="30" width="80" height="30" as="geometry" />
        </mxCell>
        <mxCell id="2kLd2aaRMBB2WDpWf91q-96" value="" style="group" parent="2kLd2aaRMBB2WDpWf91q-92" vertex="1" connectable="0">
          <mxGeometry x="130" width="110" height="30" as="geometry" />
        </mxCell>
        <mxCell id="2kLd2aaRMBB2WDpWf91q-97" value="22:" style="text;html=1;strokeColor=none;fillColor=none;align=right;verticalAlign=middle;whiteSpace=wrap;rounded=0;fontSize=14;" parent="2kLd2aaRMBB2WDpWf91q-96" vertex="1">
          <mxGeometry width="30" height="30" as="geometry" />
        </mxCell>
        <mxCell id="2kLd2aaRMBB2WDpWf91q-98" value="betray" style="strokeWidth=1;shadow=0;dashed=0;align=center;html=1;shape=mxgraph.mockup.text.textBox;fontColor=#666666;align=left;fontSize=17;spacingLeft=4;spacingTop=-3;whiteSpace=wrap;strokeColor=#666666;mainText=" parent="2kLd2aaRMBB2WDpWf91q-96" vertex="1">
          <mxGeometry x="30" width="80" height="30" as="geometry" />
        </mxCell>
        <mxCell id="2kLd2aaRMBB2WDpWf91q-99" value="" style="group" parent="2kLd2aaRMBB2WDpWf91q-92" vertex="1" connectable="0">
          <mxGeometry x="260" width="110" height="30" as="geometry" />
        </mxCell>
        <mxCell id="2kLd2aaRMBB2WDpWf91q-100" value="23:" style="text;html=1;strokeColor=none;fillColor=none;align=right;verticalAlign=middle;whiteSpace=wrap;rounded=0;fontSize=14;" parent="2kLd2aaRMBB2WDpWf91q-99" vertex="1">
          <mxGeometry width="30" height="30" as="geometry" />
        </mxCell>
        <mxCell id="2kLd2aaRMBB2WDpWf91q-101" value="proud" style="strokeWidth=1;shadow=0;dashed=0;align=center;html=1;shape=mxgraph.mockup.text.textBox;fontColor=#666666;align=left;fontSize=17;spacingLeft=4;spacingTop=-3;whiteSpace=wrap;strokeColor=#666666;mainText=" parent="2kLd2aaRMBB2WDpWf91q-99" vertex="1">
          <mxGeometry x="30" width="80" height="30" as="geometry" />
        </mxCell>
        <mxCell id="2kLd2aaRMBB2WDpWf91q-102" value="" style="group" parent="2kLd2aaRMBB2WDpWf91q-92" vertex="1" connectable="0">
          <mxGeometry x="390" width="110" height="30" as="geometry" />
        </mxCell>
        <mxCell id="2kLd2aaRMBB2WDpWf91q-103" value="24:" style="text;html=1;strokeColor=none;fillColor=none;align=right;verticalAlign=middle;whiteSpace=wrap;rounded=0;fontSize=14;" parent="2kLd2aaRMBB2WDpWf91q-102" vertex="1">
          <mxGeometry width="30" height="30" as="geometry" />
        </mxCell>
        <mxCell id="2kLd2aaRMBB2WDpWf91q-104" value="seat" style="strokeWidth=1;shadow=0;dashed=0;align=center;html=1;shape=mxgraph.mockup.text.textBox;fontColor=#666666;align=left;fontSize=17;spacingLeft=4;spacingTop=-3;whiteSpace=wrap;strokeColor=#666666;mainText=" parent="2kLd2aaRMBB2WDpWf91q-102" vertex="1">
          <mxGeometry x="30" width="80" height="30" as="geometry" />
        </mxCell>
        <mxCell id="2kLd2aaRMBB2WDpWf91q-110" value="" style="group" parent="1" vertex="1" connectable="0">
          <mxGeometry x="60" y="200" width="570" height="30" as="geometry" />
        </mxCell>
        <mxCell id="2kLd2aaRMBB2WDpWf91q-6" value="Previous" style="strokeWidth=1;shadow=0;dashed=0;align=center;html=1;shape=mxgraph.mockup.buttons.button;strokeColor=#666666;fontColor=#ffffff;mainText=;buttonStyle=round;fontSize=17;fontStyle=1;fillColor=#008cff;whiteSpace=wrap;" parent="2kLd2aaRMBB2WDpWf91q-110" vertex="1">
          <mxGeometry width="100" height="30" as="geometry" />
        </mxCell>
        <mxCell id="2kLd2aaRMBB2WDpWf91q-7" value="Next" style="strokeWidth=1;shadow=0;dashed=0;align=center;html=1;shape=mxgraph.mockup.buttons.button;strokeColor=#666666;fontColor=#ffffff;mainText=;buttonStyle=round;fontSize=17;fontStyle=1;fillColor=#008cff;whiteSpace=wrap;" parent="2kLd2aaRMBB2WDpWf91q-110" vertex="1">
          <mxGeometry x="110" width="100" height="30" as="geometry" />
        </mxCell>
        <mxCell id="2kLd2aaRMBB2WDpWf91q-8" value="Finish" style="strokeWidth=1;shadow=0;dashed=0;align=center;html=1;shape=mxgraph.mockup.buttons.button;strokeColor=#666666;fontColor=#ffffff;mainText=;buttonStyle=round;fontSize=17;fontStyle=1;fillColor=#008cff;whiteSpace=wrap;" parent="2kLd2aaRMBB2WDpWf91q-110" vertex="1">
          <mxGeometry x="470" width="100" height="30" as="geometry" />
        </mxCell>
        <mxCell id="2kLd2aaRMBB2WDpWf91q-9" value="Cancel" style="strokeWidth=1;shadow=0;dashed=0;align=center;html=1;shape=mxgraph.mockup.buttons.button;strokeColor=#666666;fontColor=#ffffff;mainText=;buttonStyle=round;fontSize=17;fontStyle=1;fillColor=#008cff;whiteSpace=wrap;" parent="2kLd2aaRMBB2WDpWf91q-110" vertex="1">
          <mxGeometry x="365" width="100" height="30" as="geometry" />
        </mxCell>
        <mxCell id="2kLd2aaRMBB2WDpWf91q-111" value="" style="group" parent="1" vertex="1" connectable="0">
          <mxGeometry x="60" y="560" width="570" height="30" as="geometry" />
        </mxCell>
        <mxCell id="2kLd2aaRMBB2WDpWf91q-19" value="Previous" style="strokeWidth=1;shadow=0;dashed=0;align=center;html=1;shape=mxgraph.mockup.buttons.button;strokeColor=#666666;fontColor=#ffffff;mainText=;buttonStyle=round;fontSize=17;fontStyle=1;fillColor=#008cff;whiteSpace=wrap;" parent="2kLd2aaRMBB2WDpWf91q-111" vertex="1">
          <mxGeometry width="100" height="30" as="geometry" />
        </mxCell>
        <mxCell id="2kLd2aaRMBB2WDpWf91q-20" value="Next" style="strokeWidth=1;shadow=0;dashed=0;align=center;html=1;shape=mxgraph.mockup.buttons.button;strokeColor=#666666;fontColor=#ffffff;mainText=;buttonStyle=round;fontSize=17;fontStyle=1;fillColor=#008cff;whiteSpace=wrap;" parent="2kLd2aaRMBB2WDpWf91q-111" vertex="1">
          <mxGeometry x="110" width="100" height="30" as="geometry" />
        </mxCell>
        <mxCell id="2kLd2aaRMBB2WDpWf91q-21" value="Finish" style="strokeWidth=1;shadow=0;dashed=0;align=center;html=1;shape=mxgraph.mockup.buttons.button;strokeColor=#666666;fontColor=#ffffff;mainText=;buttonStyle=round;fontSize=17;fontStyle=1;fillColor=#008cff;whiteSpace=wrap;" parent="2kLd2aaRMBB2WDpWf91q-111" vertex="1">
          <mxGeometry x="470" width="100" height="30" as="geometry" />
        </mxCell>
        <mxCell id="2kLd2aaRMBB2WDpWf91q-22" value="Cancel" style="strokeWidth=1;shadow=0;dashed=0;align=center;html=1;shape=mxgraph.mockup.buttons.button;strokeColor=#666666;fontColor=#ffffff;mainText=;buttonStyle=round;fontSize=17;fontStyle=1;fillColor=#008cff;whiteSpace=wrap;" parent="2kLd2aaRMBB2WDpWf91q-111" vertex="1">
          <mxGeometry x="365" width="100" height="30" as="geometry" />
        </mxCell>
        <mxCell id="2kLd2aaRMBB2WDpWf91q-112" value="" style="group" parent="1" vertex="1" connectable="0">
          <mxGeometry x="55" y="1150" width="570" height="30" as="geometry" />
        </mxCell>
        <mxCell id="2kLd2aaRMBB2WDpWf91q-105" value="Previous" style="strokeWidth=1;shadow=0;dashed=0;align=center;html=1;shape=mxgraph.mockup.buttons.button;strokeColor=#666666;fontColor=#ffffff;mainText=;buttonStyle=round;fontSize=17;fontStyle=1;fillColor=#008cff;whiteSpace=wrap;" parent="2kLd2aaRMBB2WDpWf91q-112" vertex="1">
          <mxGeometry width="100" height="30" as="geometry" />
        </mxCell>
        <mxCell id="2kLd2aaRMBB2WDpWf91q-106" value="Next" style="strokeWidth=1;shadow=0;dashed=0;align=center;html=1;shape=mxgraph.mockup.buttons.button;strokeColor=#666666;fontColor=#ffffff;mainText=;buttonStyle=round;fontSize=17;fontStyle=1;fillColor=#008cff;whiteSpace=wrap;" parent="2kLd2aaRMBB2WDpWf91q-112" vertex="1">
          <mxGeometry x="110" width="100" height="30" as="geometry" />
        </mxCell>
        <mxCell id="2kLd2aaRMBB2WDpWf91q-107" value="Finish" style="strokeWidth=1;shadow=0;dashed=0;align=center;html=1;shape=mxgraph.mockup.buttons.button;strokeColor=#666666;fontColor=#ffffff;mainText=;buttonStyle=round;fontSize=17;fontStyle=1;fillColor=#008cff;whiteSpace=wrap;" parent="2kLd2aaRMBB2WDpWf91q-112" vertex="1">
          <mxGeometry x="470" width="100" height="30" as="geometry" />
        </mxCell>
        <mxCell id="2kLd2aaRMBB2WDpWf91q-108" value="Cancel" style="strokeWidth=1;shadow=0;dashed=0;align=center;html=1;shape=mxgraph.mockup.buttons.button;strokeColor=#666666;fontColor=#ffffff;mainText=;buttonStyle=round;fontSize=17;fontStyle=1;fillColor=#008cff;whiteSpace=wrap;" parent="2kLd2aaRMBB2WDpWf91q-112" vertex="1">
          <mxGeometry x="365" width="100" height="30" as="geometry" />
        </mxCell>
        <mxCell id="2kLd2aaRMBB2WDpWf91q-113" value="&lt;div&gt;Backup the generated words in a safe offline location.&lt;/div&gt;&lt;div&gt;Do not press enter until you have saved your word list and password. Without this list of words you will not be able to recover your wallet!&lt;/div&gt;" style="text;html=1;strokeColor=none;fillColor=none;align=left;verticalAlign=middle;whiteSpace=wrap;rounded=0;fontSize=14;" parent="1" vertex="1">
          <mxGeometry x="60" y="760" width="560" height="90" as="geometry" />
        </mxCell>
        <mxCell id="2kLd2aaRMBB2WDpWf91q-114" value="Passphrase:" style="text;html=1;strokeColor=none;fillColor=none;align=right;verticalAlign=middle;whiteSpace=wrap;rounded=0;fontSize=14;" parent="1" vertex="1">
          <mxGeometry x="60" y="1100" width="140" height="30" as="geometry" />
        </mxCell>
        <mxCell id="2kLd2aaRMBB2WDpWf91q-115" value="********" style="strokeWidth=1;shadow=0;dashed=0;align=center;html=1;shape=mxgraph.mockup.forms.pwField;strokeColor=#999999;mainText=;align=left;fontColor=#666666;fontSize=17;spacingLeft=3;" parent="1" vertex="1">
          <mxGeometry x="210" y="1100" width="360" height="30" as="geometry" />
        </mxCell>
        <mxCell id="2kLd2aaRMBB2WDpWf91q-116" value="?" style="strokeWidth=1;shadow=0;dashed=0;align=center;html=1;shape=mxgraph.mockup.buttons.button;strokeColor=#666666;fontColor=#ffffff;mainText=;buttonStyle=round;fontSize=17;fontStyle=1;fillColor=#008cff;whiteSpace=wrap;" parent="1" vertex="1">
          <mxGeometry x="440" y="730" width="30" height="30" as="geometry" />
        </mxCell>
        <mxCell id="2kLd2aaRMBB2WDpWf91q-117" style="edgeStyle=orthogonalEdgeStyle;rounded=0;orthogonalLoop=1;jettySize=auto;html=1;entryX=0.498;entryY=0.002;entryDx=0;entryDy=0;entryPerimeter=0;" parent="1" source="2kLd2aaRMBB2WDpWf91q-10" target="2kLd2aaRMBB2WDpWf91q-23" edge="1">
          <mxGeometry relative="1" as="geometry" />
        </mxCell>
        <mxCell id="2kLd2aaRMBB2WDpWf91q-212" style="edgeStyle=orthogonalEdgeStyle;rounded=0;orthogonalLoop=1;jettySize=auto;html=1;" parent="1" source="2kLd2aaRMBB2WDpWf91q-118" target="2kLd2aaRMBB2WDpWf91q-211" edge="1">
          <mxGeometry relative="1" as="geometry" />
        </mxCell>
        <mxCell id="2kLd2aaRMBB2WDpWf91q-118" value="New Wallet - Verify new software wallet" style="strokeWidth=1;shadow=0;dashed=0;align=center;html=1;shape=mxgraph.mockup.containers.window;align=left;verticalAlign=top;spacingLeft=8;strokeColor2=#008cff;strokeColor3=#c4c4c4;fontColor=#666666;mainText=;fontSize=17;labelBackgroundColor=none;whiteSpace=wrap;" parent="1" vertex="1">
          <mxGeometry x="40" y="1280" width="600" height="430" as="geometry" />
        </mxCell>
        <mxCell id="2kLd2aaRMBB2WDpWf91q-122" value="" style="group" parent="1" vertex="1" connectable="0">
          <mxGeometry x="65" y="1380" width="500" height="230" as="geometry" />
        </mxCell>
        <mxCell id="2kLd2aaRMBB2WDpWf91q-123" value="" style="group" parent="2kLd2aaRMBB2WDpWf91q-122" vertex="1" connectable="0">
          <mxGeometry width="500" height="30" as="geometry" />
        </mxCell>
        <mxCell id="2kLd2aaRMBB2WDpWf91q-124" value="" style="group" parent="2kLd2aaRMBB2WDpWf91q-123" vertex="1" connectable="0">
          <mxGeometry width="110" height="30" as="geometry" />
        </mxCell>
        <mxCell id="2kLd2aaRMBB2WDpWf91q-125" value="1:" style="text;html=1;strokeColor=none;fillColor=none;align=right;verticalAlign=middle;whiteSpace=wrap;rounded=0;fontSize=14;" parent="2kLd2aaRMBB2WDpWf91q-124" vertex="1">
          <mxGeometry width="30" height="30" as="geometry" />
        </mxCell>
        <mxCell id="2kLd2aaRMBB2WDpWf91q-126" value="" style="strokeWidth=1;shadow=0;dashed=0;align=center;html=1;shape=mxgraph.mockup.text.textBox;fontColor=#666666;align=left;fontSize=17;spacingLeft=4;spacingTop=-3;whiteSpace=wrap;strokeColor=#666666;mainText=" parent="2kLd2aaRMBB2WDpWf91q-124" vertex="1">
          <mxGeometry x="30" width="80" height="30" as="geometry" />
        </mxCell>
        <mxCell id="2kLd2aaRMBB2WDpWf91q-127" value="" style="group" parent="2kLd2aaRMBB2WDpWf91q-123" vertex="1" connectable="0">
          <mxGeometry x="130" width="110" height="30" as="geometry" />
        </mxCell>
        <mxCell id="2kLd2aaRMBB2WDpWf91q-128" value="2:" style="text;html=1;strokeColor=none;fillColor=none;align=right;verticalAlign=middle;whiteSpace=wrap;rounded=0;fontSize=14;" parent="2kLd2aaRMBB2WDpWf91q-127" vertex="1">
          <mxGeometry width="30" height="30" as="geometry" />
        </mxCell>
        <mxCell id="2kLd2aaRMBB2WDpWf91q-129" value="" style="strokeWidth=1;shadow=0;dashed=0;align=center;html=1;shape=mxgraph.mockup.text.textBox;fontColor=#666666;align=left;fontSize=17;spacingLeft=4;spacingTop=-3;whiteSpace=wrap;strokeColor=#666666;mainText=" parent="2kLd2aaRMBB2WDpWf91q-127" vertex="1">
          <mxGeometry x="30" width="80" height="30" as="geometry" />
        </mxCell>
        <mxCell id="2kLd2aaRMBB2WDpWf91q-130" value="" style="group" parent="2kLd2aaRMBB2WDpWf91q-123" vertex="1" connectable="0">
          <mxGeometry x="260" width="110" height="30" as="geometry" />
        </mxCell>
        <mxCell id="2kLd2aaRMBB2WDpWf91q-131" value="3:" style="text;html=1;strokeColor=none;fillColor=none;align=right;verticalAlign=middle;whiteSpace=wrap;rounded=0;fontSize=14;" parent="2kLd2aaRMBB2WDpWf91q-130" vertex="1">
          <mxGeometry width="30" height="30" as="geometry" />
        </mxCell>
        <mxCell id="2kLd2aaRMBB2WDpWf91q-132" value="" style="strokeWidth=1;shadow=0;dashed=0;align=center;html=1;shape=mxgraph.mockup.text.textBox;fontColor=#666666;align=left;fontSize=17;spacingLeft=4;spacingTop=-3;whiteSpace=wrap;strokeColor=#666666;mainText=" parent="2kLd2aaRMBB2WDpWf91q-130" vertex="1">
          <mxGeometry x="30" width="80" height="30" as="geometry" />
        </mxCell>
        <mxCell id="2kLd2aaRMBB2WDpWf91q-133" value="" style="group" parent="2kLd2aaRMBB2WDpWf91q-123" vertex="1" connectable="0">
          <mxGeometry x="390" width="110" height="30" as="geometry" />
        </mxCell>
        <mxCell id="2kLd2aaRMBB2WDpWf91q-134" value="4:" style="text;html=1;strokeColor=none;fillColor=none;align=right;verticalAlign=middle;whiteSpace=wrap;rounded=0;fontSize=14;" parent="2kLd2aaRMBB2WDpWf91q-133" vertex="1">
          <mxGeometry width="30" height="30" as="geometry" />
        </mxCell>
        <mxCell id="2kLd2aaRMBB2WDpWf91q-135" value="" style="strokeWidth=1;shadow=0;dashed=0;align=center;html=1;shape=mxgraph.mockup.text.textBox;fontColor=#666666;align=left;fontSize=17;spacingLeft=4;spacingTop=-3;whiteSpace=wrap;strokeColor=#666666;mainText=" parent="2kLd2aaRMBB2WDpWf91q-133" vertex="1">
          <mxGeometry x="30" width="80" height="30" as="geometry" />
        </mxCell>
        <mxCell id="2kLd2aaRMBB2WDpWf91q-136" value="" style="group" parent="2kLd2aaRMBB2WDpWf91q-122" vertex="1" connectable="0">
          <mxGeometry y="40" width="500" height="30" as="geometry" />
        </mxCell>
        <mxCell id="2kLd2aaRMBB2WDpWf91q-137" value="" style="group" parent="2kLd2aaRMBB2WDpWf91q-136" vertex="1" connectable="0">
          <mxGeometry width="110" height="30" as="geometry" />
        </mxCell>
        <mxCell id="2kLd2aaRMBB2WDpWf91q-138" value="5:" style="text;html=1;strokeColor=none;fillColor=none;align=right;verticalAlign=middle;whiteSpace=wrap;rounded=0;fontSize=14;" parent="2kLd2aaRMBB2WDpWf91q-137" vertex="1">
          <mxGeometry width="30" height="30" as="geometry" />
        </mxCell>
        <mxCell id="2kLd2aaRMBB2WDpWf91q-139" value="" style="strokeWidth=1;shadow=0;dashed=0;align=center;html=1;shape=mxgraph.mockup.text.textBox;fontColor=#666666;align=left;fontSize=17;spacingLeft=4;spacingTop=-3;whiteSpace=wrap;strokeColor=#666666;mainText=" parent="2kLd2aaRMBB2WDpWf91q-137" vertex="1">
          <mxGeometry x="30" width="80" height="30" as="geometry" />
        </mxCell>
        <mxCell id="2kLd2aaRMBB2WDpWf91q-140" value="" style="group" parent="2kLd2aaRMBB2WDpWf91q-136" vertex="1" connectable="0">
          <mxGeometry x="130" width="110" height="30" as="geometry" />
        </mxCell>
        <mxCell id="2kLd2aaRMBB2WDpWf91q-141" value="6:" style="text;html=1;strokeColor=none;fillColor=none;align=right;verticalAlign=middle;whiteSpace=wrap;rounded=0;fontSize=14;" parent="2kLd2aaRMBB2WDpWf91q-140" vertex="1">
          <mxGeometry width="30" height="30" as="geometry" />
        </mxCell>
        <mxCell id="2kLd2aaRMBB2WDpWf91q-142" value="" style="strokeWidth=1;shadow=0;dashed=0;align=center;html=1;shape=mxgraph.mockup.text.textBox;fontColor=#666666;align=left;fontSize=17;spacingLeft=4;spacingTop=-3;whiteSpace=wrap;strokeColor=#666666;mainText=" parent="2kLd2aaRMBB2WDpWf91q-140" vertex="1">
          <mxGeometry x="30" width="80" height="30" as="geometry" />
        </mxCell>
        <mxCell id="2kLd2aaRMBB2WDpWf91q-143" value="" style="group" parent="2kLd2aaRMBB2WDpWf91q-136" vertex="1" connectable="0">
          <mxGeometry x="260" width="110" height="30" as="geometry" />
        </mxCell>
        <mxCell id="2kLd2aaRMBB2WDpWf91q-144" value="7:" style="text;html=1;strokeColor=none;fillColor=none;align=right;verticalAlign=middle;whiteSpace=wrap;rounded=0;fontSize=14;" parent="2kLd2aaRMBB2WDpWf91q-143" vertex="1">
          <mxGeometry width="30" height="30" as="geometry" />
        </mxCell>
        <mxCell id="2kLd2aaRMBB2WDpWf91q-145" value="" style="strokeWidth=1;shadow=0;dashed=0;align=center;html=1;shape=mxgraph.mockup.text.textBox;fontColor=#666666;align=left;fontSize=17;spacingLeft=4;spacingTop=-3;whiteSpace=wrap;strokeColor=#666666;mainText=" parent="2kLd2aaRMBB2WDpWf91q-143" vertex="1">
          <mxGeometry x="30" width="80" height="30" as="geometry" />
        </mxCell>
        <mxCell id="2kLd2aaRMBB2WDpWf91q-146" value="" style="group" parent="2kLd2aaRMBB2WDpWf91q-136" vertex="1" connectable="0">
          <mxGeometry x="390" width="110" height="30" as="geometry" />
        </mxCell>
        <mxCell id="2kLd2aaRMBB2WDpWf91q-147" value="8:" style="text;html=1;strokeColor=none;fillColor=none;align=right;verticalAlign=middle;whiteSpace=wrap;rounded=0;fontSize=14;" parent="2kLd2aaRMBB2WDpWf91q-146" vertex="1">
          <mxGeometry width="30" height="30" as="geometry" />
        </mxCell>
        <mxCell id="2kLd2aaRMBB2WDpWf91q-148" value="" style="strokeWidth=1;shadow=0;dashed=0;align=center;html=1;shape=mxgraph.mockup.text.textBox;fontColor=#666666;align=left;fontSize=17;spacingLeft=4;spacingTop=-3;whiteSpace=wrap;strokeColor=#666666;mainText=" parent="2kLd2aaRMBB2WDpWf91q-146" vertex="1">
          <mxGeometry x="30" width="80" height="30" as="geometry" />
        </mxCell>
        <mxCell id="2kLd2aaRMBB2WDpWf91q-149" value="" style="group" parent="2kLd2aaRMBB2WDpWf91q-122" vertex="1" connectable="0">
          <mxGeometry y="80" width="500" height="30" as="geometry" />
        </mxCell>
        <mxCell id="2kLd2aaRMBB2WDpWf91q-150" value="" style="group" parent="2kLd2aaRMBB2WDpWf91q-149" vertex="1" connectable="0">
          <mxGeometry width="110" height="30" as="geometry" />
        </mxCell>
        <mxCell id="2kLd2aaRMBB2WDpWf91q-151" value="9:" style="text;html=1;strokeColor=none;fillColor=none;align=right;verticalAlign=middle;whiteSpace=wrap;rounded=0;fontSize=14;" parent="2kLd2aaRMBB2WDpWf91q-150" vertex="1">
          <mxGeometry width="30" height="30" as="geometry" />
        </mxCell>
        <mxCell id="2kLd2aaRMBB2WDpWf91q-152" value="" style="strokeWidth=1;shadow=0;dashed=0;align=center;html=1;shape=mxgraph.mockup.text.textBox;fontColor=#666666;align=left;fontSize=17;spacingLeft=4;spacingTop=-3;whiteSpace=wrap;strokeColor=#666666;mainText=" parent="2kLd2aaRMBB2WDpWf91q-150" vertex="1">
          <mxGeometry x="30" width="80" height="30" as="geometry" />
        </mxCell>
        <mxCell id="2kLd2aaRMBB2WDpWf91q-153" value="" style="group" parent="2kLd2aaRMBB2WDpWf91q-149" vertex="1" connectable="0">
          <mxGeometry x="130" width="110" height="30" as="geometry" />
        </mxCell>
        <mxCell id="2kLd2aaRMBB2WDpWf91q-154" value="10:" style="text;html=1;strokeColor=none;fillColor=none;align=right;verticalAlign=middle;whiteSpace=wrap;rounded=0;fontSize=14;" parent="2kLd2aaRMBB2WDpWf91q-153" vertex="1">
          <mxGeometry width="30" height="30" as="geometry" />
        </mxCell>
        <mxCell id="2kLd2aaRMBB2WDpWf91q-155" value="" style="strokeWidth=1;shadow=0;dashed=0;align=center;html=1;shape=mxgraph.mockup.text.textBox;fontColor=#666666;align=left;fontSize=17;spacingLeft=4;spacingTop=-3;whiteSpace=wrap;strokeColor=#666666;mainText=" parent="2kLd2aaRMBB2WDpWf91q-153" vertex="1">
          <mxGeometry x="30" width="80" height="30" as="geometry" />
        </mxCell>
        <mxCell id="2kLd2aaRMBB2WDpWf91q-156" value="" style="group" parent="2kLd2aaRMBB2WDpWf91q-149" vertex="1" connectable="0">
          <mxGeometry x="260" width="110" height="30" as="geometry" />
        </mxCell>
        <mxCell id="2kLd2aaRMBB2WDpWf91q-157" value="11:" style="text;html=1;strokeColor=none;fillColor=none;align=right;verticalAlign=middle;whiteSpace=wrap;rounded=0;fontSize=14;" parent="2kLd2aaRMBB2WDpWf91q-156" vertex="1">
          <mxGeometry width="30" height="30" as="geometry" />
        </mxCell>
        <mxCell id="2kLd2aaRMBB2WDpWf91q-158" value="" style="strokeWidth=1;shadow=0;dashed=0;align=center;html=1;shape=mxgraph.mockup.text.textBox;fontColor=#666666;align=left;fontSize=17;spacingLeft=4;spacingTop=-3;whiteSpace=wrap;strokeColor=#666666;mainText=" parent="2kLd2aaRMBB2WDpWf91q-156" vertex="1">
          <mxGeometry x="30" width="80" height="30" as="geometry" />
        </mxCell>
        <mxCell id="2kLd2aaRMBB2WDpWf91q-159" value="" style="group" parent="2kLd2aaRMBB2WDpWf91q-149" vertex="1" connectable="0">
          <mxGeometry x="390" width="110" height="30" as="geometry" />
        </mxCell>
        <mxCell id="2kLd2aaRMBB2WDpWf91q-160" value="12:" style="text;html=1;strokeColor=none;fillColor=none;align=right;verticalAlign=middle;whiteSpace=wrap;rounded=0;fontSize=14;" parent="2kLd2aaRMBB2WDpWf91q-159" vertex="1">
          <mxGeometry width="30" height="30" as="geometry" />
        </mxCell>
        <mxCell id="2kLd2aaRMBB2WDpWf91q-161" value="" style="strokeWidth=1;shadow=0;dashed=0;align=center;html=1;shape=mxgraph.mockup.text.textBox;fontColor=#666666;align=left;fontSize=17;spacingLeft=4;spacingTop=-3;whiteSpace=wrap;strokeColor=#666666;mainText=" parent="2kLd2aaRMBB2WDpWf91q-159" vertex="1">
          <mxGeometry x="30" width="80" height="30" as="geometry" />
        </mxCell>
        <mxCell id="2kLd2aaRMBB2WDpWf91q-162" value="" style="group" parent="2kLd2aaRMBB2WDpWf91q-122" vertex="1" connectable="0">
          <mxGeometry y="120" width="500" height="30" as="geometry" />
        </mxCell>
        <mxCell id="2kLd2aaRMBB2WDpWf91q-163" value="" style="group" parent="2kLd2aaRMBB2WDpWf91q-162" vertex="1" connectable="0">
          <mxGeometry width="110" height="30" as="geometry" />
        </mxCell>
        <mxCell id="2kLd2aaRMBB2WDpWf91q-164" value="13:" style="text;html=1;strokeColor=none;fillColor=none;align=right;verticalAlign=middle;whiteSpace=wrap;rounded=0;fontSize=14;" parent="2kLd2aaRMBB2WDpWf91q-163" vertex="1">
          <mxGeometry width="30" height="30" as="geometry" />
        </mxCell>
        <mxCell id="2kLd2aaRMBB2WDpWf91q-165" value="" style="strokeWidth=1;shadow=0;dashed=0;align=center;html=1;shape=mxgraph.mockup.text.textBox;fontColor=#666666;align=left;fontSize=17;spacingLeft=4;spacingTop=-3;whiteSpace=wrap;strokeColor=#666666;mainText=" parent="2kLd2aaRMBB2WDpWf91q-163" vertex="1">
          <mxGeometry x="30" width="80" height="30" as="geometry" />
        </mxCell>
        <mxCell id="2kLd2aaRMBB2WDpWf91q-166" value="" style="group" parent="2kLd2aaRMBB2WDpWf91q-162" vertex="1" connectable="0">
          <mxGeometry x="130" width="110" height="30" as="geometry" />
        </mxCell>
        <mxCell id="2kLd2aaRMBB2WDpWf91q-167" value="14:" style="text;html=1;strokeColor=none;fillColor=none;align=right;verticalAlign=middle;whiteSpace=wrap;rounded=0;fontSize=14;" parent="2kLd2aaRMBB2WDpWf91q-166" vertex="1">
          <mxGeometry width="30" height="30" as="geometry" />
        </mxCell>
        <mxCell id="2kLd2aaRMBB2WDpWf91q-168" value="" style="strokeWidth=1;shadow=0;dashed=0;align=center;html=1;shape=mxgraph.mockup.text.textBox;fontColor=#666666;align=left;fontSize=17;spacingLeft=4;spacingTop=-3;whiteSpace=wrap;strokeColor=#666666;mainText=" parent="2kLd2aaRMBB2WDpWf91q-166" vertex="1">
          <mxGeometry x="30" width="80" height="30" as="geometry" />
        </mxCell>
        <mxCell id="2kLd2aaRMBB2WDpWf91q-169" value="" style="group" parent="2kLd2aaRMBB2WDpWf91q-162" vertex="1" connectable="0">
          <mxGeometry x="260" width="110" height="30" as="geometry" />
        </mxCell>
        <mxCell id="2kLd2aaRMBB2WDpWf91q-170" value="15:" style="text;html=1;strokeColor=none;fillColor=none;align=right;verticalAlign=middle;whiteSpace=wrap;rounded=0;fontSize=14;" parent="2kLd2aaRMBB2WDpWf91q-169" vertex="1">
          <mxGeometry width="30" height="30" as="geometry" />
        </mxCell>
        <mxCell id="2kLd2aaRMBB2WDpWf91q-171" value="" style="strokeWidth=1;shadow=0;dashed=0;align=center;html=1;shape=mxgraph.mockup.text.textBox;fontColor=#666666;align=left;fontSize=17;spacingLeft=4;spacingTop=-3;whiteSpace=wrap;strokeColor=#666666;mainText=" parent="2kLd2aaRMBB2WDpWf91q-169" vertex="1">
          <mxGeometry x="30" width="80" height="30" as="geometry" />
        </mxCell>
        <mxCell id="2kLd2aaRMBB2WDpWf91q-172" value="" style="group" parent="2kLd2aaRMBB2WDpWf91q-162" vertex="1" connectable="0">
          <mxGeometry x="390" width="110" height="30" as="geometry" />
        </mxCell>
        <mxCell id="2kLd2aaRMBB2WDpWf91q-173" value="16:" style="text;html=1;strokeColor=none;fillColor=none;align=right;verticalAlign=middle;whiteSpace=wrap;rounded=0;fontSize=14;" parent="2kLd2aaRMBB2WDpWf91q-172" vertex="1">
          <mxGeometry width="30" height="30" as="geometry" />
        </mxCell>
        <mxCell id="2kLd2aaRMBB2WDpWf91q-174" value="" style="strokeWidth=1;shadow=0;dashed=0;align=center;html=1;shape=mxgraph.mockup.text.textBox;fontColor=#666666;align=left;fontSize=17;spacingLeft=4;spacingTop=-3;whiteSpace=wrap;strokeColor=#666666;mainText=" parent="2kLd2aaRMBB2WDpWf91q-172" vertex="1">
          <mxGeometry x="30" width="80" height="30" as="geometry" />
        </mxCell>
        <mxCell id="2kLd2aaRMBB2WDpWf91q-175" value="" style="group" parent="2kLd2aaRMBB2WDpWf91q-122" vertex="1" connectable="0">
          <mxGeometry y="160" width="500" height="30" as="geometry" />
        </mxCell>
        <mxCell id="2kLd2aaRMBB2WDpWf91q-176" value="" style="group" parent="2kLd2aaRMBB2WDpWf91q-175" vertex="1" connectable="0">
          <mxGeometry width="110" height="30" as="geometry" />
        </mxCell>
        <mxCell id="2kLd2aaRMBB2WDpWf91q-177" value="17:" style="text;html=1;strokeColor=none;fillColor=none;align=right;verticalAlign=middle;whiteSpace=wrap;rounded=0;fontSize=14;" parent="2kLd2aaRMBB2WDpWf91q-176" vertex="1">
          <mxGeometry width="30" height="30" as="geometry" />
        </mxCell>
        <mxCell id="2kLd2aaRMBB2WDpWf91q-178" value="" style="strokeWidth=1;shadow=0;dashed=0;align=center;html=1;shape=mxgraph.mockup.text.textBox;fontColor=#666666;align=left;fontSize=17;spacingLeft=4;spacingTop=-3;whiteSpace=wrap;strokeColor=#666666;mainText=" parent="2kLd2aaRMBB2WDpWf91q-176" vertex="1">
          <mxGeometry x="30" width="80" height="30" as="geometry" />
        </mxCell>
        <mxCell id="2kLd2aaRMBB2WDpWf91q-179" value="" style="group" parent="2kLd2aaRMBB2WDpWf91q-175" vertex="1" connectable="0">
          <mxGeometry x="130" width="110" height="30" as="geometry" />
        </mxCell>
        <mxCell id="2kLd2aaRMBB2WDpWf91q-180" value="18:" style="text;html=1;strokeColor=none;fillColor=none;align=right;verticalAlign=middle;whiteSpace=wrap;rounded=0;fontSize=14;" parent="2kLd2aaRMBB2WDpWf91q-179" vertex="1">
          <mxGeometry width="30" height="30" as="geometry" />
        </mxCell>
        <mxCell id="2kLd2aaRMBB2WDpWf91q-181" value="" style="strokeWidth=1;shadow=0;dashed=0;align=center;html=1;shape=mxgraph.mockup.text.textBox;fontColor=#666666;align=left;fontSize=17;spacingLeft=4;spacingTop=-3;whiteSpace=wrap;strokeColor=#666666;mainText=" parent="2kLd2aaRMBB2WDpWf91q-179" vertex="1">
          <mxGeometry x="30" width="80" height="30" as="geometry" />
        </mxCell>
        <mxCell id="2kLd2aaRMBB2WDpWf91q-182" value="" style="group" parent="2kLd2aaRMBB2WDpWf91q-175" vertex="1" connectable="0">
          <mxGeometry x="260" width="110" height="30" as="geometry" />
        </mxCell>
        <mxCell id="2kLd2aaRMBB2WDpWf91q-183" value="19:" style="text;html=1;strokeColor=none;fillColor=none;align=right;verticalAlign=middle;whiteSpace=wrap;rounded=0;fontSize=14;" parent="2kLd2aaRMBB2WDpWf91q-182" vertex="1">
          <mxGeometry width="30" height="30" as="geometry" />
        </mxCell>
        <mxCell id="2kLd2aaRMBB2WDpWf91q-184" value="" style="strokeWidth=1;shadow=0;dashed=0;align=center;html=1;shape=mxgraph.mockup.text.textBox;fontColor=#666666;align=left;fontSize=17;spacingLeft=4;spacingTop=-3;whiteSpace=wrap;strokeColor=#666666;mainText=" parent="2kLd2aaRMBB2WDpWf91q-182" vertex="1">
          <mxGeometry x="30" width="80" height="30" as="geometry" />
        </mxCell>
        <mxCell id="2kLd2aaRMBB2WDpWf91q-185" value="" style="group" parent="2kLd2aaRMBB2WDpWf91q-175" vertex="1" connectable="0">
          <mxGeometry x="390" width="110" height="30" as="geometry" />
        </mxCell>
        <mxCell id="2kLd2aaRMBB2WDpWf91q-186" value="20:" style="text;html=1;strokeColor=none;fillColor=none;align=right;verticalAlign=middle;whiteSpace=wrap;rounded=0;fontSize=14;" parent="2kLd2aaRMBB2WDpWf91q-185" vertex="1">
          <mxGeometry width="30" height="30" as="geometry" />
        </mxCell>
        <mxCell id="2kLd2aaRMBB2WDpWf91q-187" value="" style="strokeWidth=1;shadow=0;dashed=0;align=center;html=1;shape=mxgraph.mockup.text.textBox;fontColor=#666666;align=left;fontSize=17;spacingLeft=4;spacingTop=-3;whiteSpace=wrap;strokeColor=#666666;mainText=" parent="2kLd2aaRMBB2WDpWf91q-185" vertex="1">
          <mxGeometry x="30" width="80" height="30" as="geometry" />
        </mxCell>
        <mxCell id="2kLd2aaRMBB2WDpWf91q-188" value="" style="group" parent="2kLd2aaRMBB2WDpWf91q-122" vertex="1" connectable="0">
          <mxGeometry y="200" width="500" height="30" as="geometry" />
        </mxCell>
        <mxCell id="2kLd2aaRMBB2WDpWf91q-189" value="" style="group" parent="2kLd2aaRMBB2WDpWf91q-188" vertex="1" connectable="0">
          <mxGeometry width="110" height="30" as="geometry" />
        </mxCell>
        <mxCell id="2kLd2aaRMBB2WDpWf91q-190" value="21:" style="text;html=1;strokeColor=none;fillColor=none;align=right;verticalAlign=middle;whiteSpace=wrap;rounded=0;fontSize=14;" parent="2kLd2aaRMBB2WDpWf91q-189" vertex="1">
          <mxGeometry width="30" height="30" as="geometry" />
        </mxCell>
        <mxCell id="2kLd2aaRMBB2WDpWf91q-191" value="" style="strokeWidth=1;shadow=0;dashed=0;align=center;html=1;shape=mxgraph.mockup.text.textBox;fontColor=#666666;align=left;fontSize=17;spacingLeft=4;spacingTop=-3;whiteSpace=wrap;strokeColor=#666666;mainText=" parent="2kLd2aaRMBB2WDpWf91q-189" vertex="1">
          <mxGeometry x="30" width="80" height="30" as="geometry" />
        </mxCell>
        <mxCell id="2kLd2aaRMBB2WDpWf91q-192" value="" style="group" parent="2kLd2aaRMBB2WDpWf91q-188" vertex="1" connectable="0">
          <mxGeometry x="130" width="110" height="30" as="geometry" />
        </mxCell>
        <mxCell id="2kLd2aaRMBB2WDpWf91q-193" value="22:" style="text;html=1;strokeColor=none;fillColor=none;align=right;verticalAlign=middle;whiteSpace=wrap;rounded=0;fontSize=14;" parent="2kLd2aaRMBB2WDpWf91q-192" vertex="1">
          <mxGeometry width="30" height="30" as="geometry" />
        </mxCell>
        <mxCell id="2kLd2aaRMBB2WDpWf91q-194" value="" style="strokeWidth=1;shadow=0;dashed=0;align=center;html=1;shape=mxgraph.mockup.text.textBox;fontColor=#666666;align=left;fontSize=17;spacingLeft=4;spacingTop=-3;whiteSpace=wrap;strokeColor=#666666;mainText=" parent="2kLd2aaRMBB2WDpWf91q-192" vertex="1">
          <mxGeometry x="30" width="80" height="30" as="geometry" />
        </mxCell>
        <mxCell id="2kLd2aaRMBB2WDpWf91q-195" value="" style="group" parent="2kLd2aaRMBB2WDpWf91q-188" vertex="1" connectable="0">
          <mxGeometry x="260" width="110" height="30" as="geometry" />
        </mxCell>
        <mxCell id="2kLd2aaRMBB2WDpWf91q-196" value="23:" style="text;html=1;strokeColor=none;fillColor=none;align=right;verticalAlign=middle;whiteSpace=wrap;rounded=0;fontSize=14;" parent="2kLd2aaRMBB2WDpWf91q-195" vertex="1">
          <mxGeometry width="30" height="30" as="geometry" />
        </mxCell>
        <mxCell id="2kLd2aaRMBB2WDpWf91q-197" value="" style="strokeWidth=1;shadow=0;dashed=0;align=center;html=1;shape=mxgraph.mockup.text.textBox;fontColor=#666666;align=left;fontSize=17;spacingLeft=4;spacingTop=-3;whiteSpace=wrap;strokeColor=#666666;mainText=" parent="2kLd2aaRMBB2WDpWf91q-195" vertex="1">
          <mxGeometry x="30" width="80" height="30" as="geometry" />
        </mxCell>
        <mxCell id="2kLd2aaRMBB2WDpWf91q-198" value="" style="group" parent="2kLd2aaRMBB2WDpWf91q-188" vertex="1" connectable="0">
          <mxGeometry x="390" width="110" height="30" as="geometry" />
        </mxCell>
        <mxCell id="2kLd2aaRMBB2WDpWf91q-199" value="24:" style="text;html=1;strokeColor=none;fillColor=none;align=right;verticalAlign=middle;whiteSpace=wrap;rounded=0;fontSize=14;" parent="2kLd2aaRMBB2WDpWf91q-198" vertex="1">
          <mxGeometry width="30" height="30" as="geometry" />
        </mxCell>
        <mxCell id="2kLd2aaRMBB2WDpWf91q-200" value="" style="strokeWidth=1;shadow=0;dashed=0;align=center;html=1;shape=mxgraph.mockup.text.textBox;fontColor=#666666;align=left;fontSize=17;spacingLeft=4;spacingTop=-3;whiteSpace=wrap;strokeColor=#666666;mainText=" parent="2kLd2aaRMBB2WDpWf91q-198" vertex="1">
          <mxGeometry x="30" width="80" height="30" as="geometry" />
        </mxCell>
        <mxCell id="2kLd2aaRMBB2WDpWf91q-201" value="" style="group" parent="1" vertex="1" connectable="0">
          <mxGeometry x="50" y="1670" width="570" height="30" as="geometry" />
        </mxCell>
        <mxCell id="2kLd2aaRMBB2WDpWf91q-202" value="Previous" style="strokeWidth=1;shadow=0;dashed=0;align=center;html=1;shape=mxgraph.mockup.buttons.button;strokeColor=#666666;fontColor=#ffffff;mainText=;buttonStyle=round;fontSize=17;fontStyle=1;fillColor=#008cff;whiteSpace=wrap;" parent="2kLd2aaRMBB2WDpWf91q-201" vertex="1">
          <mxGeometry width="100" height="30" as="geometry" />
        </mxCell>
        <mxCell id="2kLd2aaRMBB2WDpWf91q-203" value="Next" style="strokeWidth=1;shadow=0;dashed=0;align=center;html=1;shape=mxgraph.mockup.buttons.button;strokeColor=#666666;fontColor=#ffffff;mainText=;buttonStyle=round;fontSize=17;fontStyle=1;fillColor=#008cff;whiteSpace=wrap;" parent="2kLd2aaRMBB2WDpWf91q-201" vertex="1">
          <mxGeometry x="110" width="100" height="30" as="geometry" />
        </mxCell>
        <mxCell id="2kLd2aaRMBB2WDpWf91q-204" value="Finish" style="strokeWidth=1;shadow=0;dashed=0;align=center;html=1;shape=mxgraph.mockup.buttons.button;strokeColor=#666666;fontColor=#ffffff;mainText=;buttonStyle=round;fontSize=17;fontStyle=1;fillColor=#008cff;whiteSpace=wrap;" parent="2kLd2aaRMBB2WDpWf91q-201" vertex="1">
          <mxGeometry x="470" width="100" height="30" as="geometry" />
        </mxCell>
        <mxCell id="2kLd2aaRMBB2WDpWf91q-205" value="Cancel" style="strokeWidth=1;shadow=0;dashed=0;align=center;html=1;shape=mxgraph.mockup.buttons.button;strokeColor=#666666;fontColor=#ffffff;mainText=;buttonStyle=round;fontSize=17;fontStyle=1;fillColor=#008cff;whiteSpace=wrap;" parent="2kLd2aaRMBB2WDpWf91q-201" vertex="1">
          <mxGeometry x="365" width="100" height="30" as="geometry" />
        </mxCell>
        <mxCell id="2kLd2aaRMBB2WDpWf91q-206" value="Enter the 24 words and the passhrase from you backup back into the form below in order to verify the validity of your backup." style="text;html=1;strokeColor=none;fillColor=none;align=left;verticalAlign=middle;whiteSpace=wrap;rounded=0;fontSize=14;" parent="1" vertex="1">
          <mxGeometry x="60" y="1320" width="560" height="60" as="geometry" />
        </mxCell>
        <mxCell id="2kLd2aaRMBB2WDpWf91q-207" value="Passphrase:" style="text;html=1;strokeColor=none;fillColor=none;align=right;verticalAlign=middle;whiteSpace=wrap;rounded=0;fontSize=14;" parent="1" vertex="1">
          <mxGeometry x="55" y="1620" width="140" height="30" as="geometry" />
        </mxCell>
        <mxCell id="2kLd2aaRMBB2WDpWf91q-208" value="" style="strokeWidth=1;shadow=0;dashed=0;align=center;html=1;shape=mxgraph.mockup.forms.pwField;strokeColor=#999999;mainText=;align=left;fontColor=#666666;fontSize=17;spacingLeft=3;" parent="1" vertex="1">
          <mxGeometry x="205" y="1620" width="360" height="30" as="geometry" />
        </mxCell>
        <mxCell id="2kLd2aaRMBB2WDpWf91q-224" style="edgeStyle=orthogonalEdgeStyle;rounded=0;orthogonalLoop=1;jettySize=auto;html=1;" parent="1" source="2kLd2aaRMBB2WDpWf91q-211" target="2kLd2aaRMBB2WDpWf91q-223" edge="1">
          <mxGeometry relative="1" as="geometry" />
        </mxCell>
        <mxCell id="2kLd2aaRMBB2WDpWf91q-211" value="New Wallet - Encrypt wallet file" style="strokeWidth=1;shadow=0;dashed=0;align=center;html=1;shape=mxgraph.mockup.containers.window;align=left;verticalAlign=top;spacingLeft=8;strokeColor2=#008cff;strokeColor3=#c4c4c4;fontColor=#666666;mainText=;fontSize=17;labelBackgroundColor=none;whiteSpace=wrap;" parent="1" vertex="1">
          <mxGeometry x="40" y="1800" width="600" height="280" as="geometry" />
        </mxCell>
        <mxCell id="2kLd2aaRMBB2WDpWf91q-213" value="&lt;div&gt;Enter a password if you wan to encrypt the wallet file on disk. This password is needed every time you open the wallet application.&lt;br&gt;&lt;/div&gt;" style="text;html=1;strokeColor=none;fillColor=none;align=left;verticalAlign=middle;whiteSpace=wrap;rounded=0;fontSize=14;" parent="1" vertex="1">
          <mxGeometry x="55" y="1840" width="560" height="60" as="geometry" />
        </mxCell>
        <mxCell id="2kLd2aaRMBB2WDpWf91q-214" value="" style="group" parent="1" vertex="1" connectable="0">
          <mxGeometry x="50" y="2040" width="570" height="30" as="geometry" />
        </mxCell>
        <mxCell id="2kLd2aaRMBB2WDpWf91q-215" value="Previous" style="strokeWidth=1;shadow=0;dashed=0;align=center;html=1;shape=mxgraph.mockup.buttons.button;strokeColor=#666666;fontColor=#ffffff;mainText=;buttonStyle=round;fontSize=17;fontStyle=1;fillColor=#008cff;whiteSpace=wrap;" parent="2kLd2aaRMBB2WDpWf91q-214" vertex="1">
          <mxGeometry width="100" height="30" as="geometry" />
        </mxCell>
        <mxCell id="2kLd2aaRMBB2WDpWf91q-216" value="Next" style="strokeWidth=1;shadow=0;dashed=0;align=center;html=1;shape=mxgraph.mockup.buttons.button;strokeColor=#666666;fontColor=#ffffff;mainText=;buttonStyle=round;fontSize=17;fontStyle=1;fillColor=#008cff;whiteSpace=wrap;" parent="2kLd2aaRMBB2WDpWf91q-214" vertex="1">
          <mxGeometry x="110" width="100" height="30" as="geometry" />
        </mxCell>
        <mxCell id="2kLd2aaRMBB2WDpWf91q-217" value="Finish" style="strokeWidth=1;shadow=0;dashed=0;align=center;html=1;shape=mxgraph.mockup.buttons.button;strokeColor=#666666;fontColor=#ffffff;mainText=;buttonStyle=round;fontSize=17;fontStyle=1;fillColor=#008cff;whiteSpace=wrap;" parent="2kLd2aaRMBB2WDpWf91q-214" vertex="1">
          <mxGeometry x="470" width="100" height="30" as="geometry" />
        </mxCell>
        <mxCell id="2kLd2aaRMBB2WDpWf91q-218" value="Cancel" style="strokeWidth=1;shadow=0;dashed=0;align=center;html=1;shape=mxgraph.mockup.buttons.button;strokeColor=#666666;fontColor=#ffffff;mainText=;buttonStyle=round;fontSize=17;fontStyle=1;fillColor=#008cff;whiteSpace=wrap;" parent="2kLd2aaRMBB2WDpWf91q-214" vertex="1">
          <mxGeometry x="365" width="100" height="30" as="geometry" />
        </mxCell>
        <mxCell id="2kLd2aaRMBB2WDpWf91q-219" value="Wallet password:" style="text;html=1;strokeColor=none;fillColor=none;align=right;verticalAlign=middle;whiteSpace=wrap;rounded=0;fontSize=14;" parent="1" vertex="1">
          <mxGeometry x="55" y="1920" width="140" height="30" as="geometry" />
        </mxCell>
        <mxCell id="2kLd2aaRMBB2WDpWf91q-220" value="****************" style="strokeWidth=1;shadow=0;dashed=0;align=center;html=1;shape=mxgraph.mockup.forms.pwField;strokeColor=#999999;mainText=;align=left;fontColor=#666666;fontSize=17;spacingLeft=3;" parent="1" vertex="1">
          <mxGeometry x="205" y="1920" width="360" height="30" as="geometry" />
        </mxCell>
        <mxCell id="2kLd2aaRMBB2WDpWf91q-221" value="" style="ellipse;html=1;shape=startState;fillColor=#000000;strokeColor=#ff0000;" parent="1" vertex="1">
          <mxGeometry x="325" y="-50" width="30" height="30" as="geometry" />
        </mxCell>
        <mxCell id="2kLd2aaRMBB2WDpWf91q-222" value="" style="edgeStyle=orthogonalEdgeStyle;html=1;verticalAlign=bottom;endArrow=open;endSize=8;strokeColor=#ff0000;rounded=0;" parent="1" source="2kLd2aaRMBB2WDpWf91q-221" edge="1">
          <mxGeometry relative="1" as="geometry">
            <mxPoint x="340" y="40" as="targetPoint" />
          </mxGeometry>
        </mxCell>
        <mxCell id="2kLd2aaRMBB2WDpWf91q-223" value="" style="ellipse;html=1;shape=endState;fillColor=#000000;strokeColor=#ff0000;" parent="1" vertex="1">
          <mxGeometry x="325" y="2140" width="30" height="30" as="geometry" />
        </mxCell>
        <mxCell id="rAUoanlOyvB0TRddyHbe-2" value="New Wallet - Restore software wallet" style="strokeWidth=1;shadow=0;dashed=0;align=center;html=1;shape=mxgraph.mockup.containers.window;align=left;verticalAlign=top;spacingLeft=8;strokeColor2=#008cff;strokeColor3=#c4c4c4;fontColor=#666666;mainText=;fontSize=17;labelBackgroundColor=none;whiteSpace=wrap;" vertex="1" parent="1">
          <mxGeometry x="720" y="680" width="600" height="520" as="geometry" />
        </mxCell>
        <mxCell id="rAUoanlOyvB0TRddyHbe-3" value="Mnemonic size:" style="text;html=1;strokeColor=none;fillColor=none;align=right;verticalAlign=middle;whiteSpace=wrap;rounded=0;fontSize=14;" vertex="1" parent="1">
          <mxGeometry x="740" y="730" width="140" height="30" as="geometry" />
        </mxCell>
        <mxCell id="rAUoanlOyvB0TRddyHbe-4" value="24 words + passphrase" style="strokeWidth=1;shadow=0;dashed=0;align=center;html=1;shape=mxgraph.mockup.forms.comboBox;strokeColor=#999999;fillColor=#ddeeff;align=left;fillColor2=#aaddff;mainText=;fontColor=#666666;fontSize=17;spacingLeft=3;" vertex="1" parent="1">
          <mxGeometry x="890" y="730" width="400" height="30" as="geometry" />
        </mxCell>
        <mxCell id="rAUoanlOyvB0TRddyHbe-6" value="" style="group" vertex="1" connectable="0" parent="1">
          <mxGeometry x="750" y="860" width="500" height="230" as="geometry" />
        </mxCell>
        <mxCell id="rAUoanlOyvB0TRddyHbe-7" value="" style="group" vertex="1" connectable="0" parent="rAUoanlOyvB0TRddyHbe-6">
          <mxGeometry width="500" height="30" as="geometry" />
        </mxCell>
        <mxCell id="rAUoanlOyvB0TRddyHbe-8" value="" style="group" vertex="1" connectable="0" parent="rAUoanlOyvB0TRddyHbe-7">
          <mxGeometry width="110" height="30" as="geometry" />
        </mxCell>
        <mxCell id="rAUoanlOyvB0TRddyHbe-9" value="1:" style="text;html=1;strokeColor=none;fillColor=none;align=right;verticalAlign=middle;whiteSpace=wrap;rounded=0;fontSize=14;" vertex="1" parent="rAUoanlOyvB0TRddyHbe-8">
          <mxGeometry width="30" height="30" as="geometry" />
        </mxCell>
        <mxCell id="rAUoanlOyvB0TRddyHbe-10" value="dice" style="strokeWidth=1;shadow=0;dashed=0;align=center;html=1;shape=mxgraph.mockup.text.textBox;fontColor=#666666;align=left;fontSize=17;spacingLeft=4;spacingTop=-3;whiteSpace=wrap;strokeColor=#666666;mainText=" vertex="1" parent="rAUoanlOyvB0TRddyHbe-8">
          <mxGeometry x="30" width="80" height="30" as="geometry" />
        </mxCell>
        <mxCell id="rAUoanlOyvB0TRddyHbe-11" value="" style="group" vertex="1" connectable="0" parent="rAUoanlOyvB0TRddyHbe-7">
          <mxGeometry x="130" width="110" height="30" as="geometry" />
        </mxCell>
        <mxCell id="rAUoanlOyvB0TRddyHbe-12" value="2:" style="text;html=1;strokeColor=none;fillColor=none;align=right;verticalAlign=middle;whiteSpace=wrap;rounded=0;fontSize=14;" vertex="1" parent="rAUoanlOyvB0TRddyHbe-11">
          <mxGeometry width="30" height="30" as="geometry" />
        </mxCell>
        <mxCell id="rAUoanlOyvB0TRddyHbe-13" value="equal" style="strokeWidth=1;shadow=0;dashed=0;align=center;html=1;shape=mxgraph.mockup.text.textBox;fontColor=#666666;align=left;fontSize=17;spacingLeft=4;spacingTop=-3;whiteSpace=wrap;strokeColor=#666666;mainText=" vertex="1" parent="rAUoanlOyvB0TRddyHbe-11">
          <mxGeometry x="30" width="80" height="30" as="geometry" />
        </mxCell>
        <mxCell id="rAUoanlOyvB0TRddyHbe-14" value="" style="group" vertex="1" connectable="0" parent="rAUoanlOyvB0TRddyHbe-7">
          <mxGeometry x="260" width="110" height="30" as="geometry" />
        </mxCell>
        <mxCell id="rAUoanlOyvB0TRddyHbe-15" value="3:" style="text;html=1;strokeColor=none;fillColor=none;align=right;verticalAlign=middle;whiteSpace=wrap;rounded=0;fontSize=14;" vertex="1" parent="rAUoanlOyvB0TRddyHbe-14">
          <mxGeometry width="30" height="30" as="geometry" />
        </mxCell>
        <mxCell id="rAUoanlOyvB0TRddyHbe-16" value="case" style="strokeWidth=1;shadow=0;dashed=0;align=center;html=1;shape=mxgraph.mockup.text.textBox;fontColor=#666666;align=left;fontSize=17;spacingLeft=4;spacingTop=-3;whiteSpace=wrap;strokeColor=#666666;mainText=" vertex="1" parent="rAUoanlOyvB0TRddyHbe-14">
          <mxGeometry x="30" width="80" height="30" as="geometry" />
        </mxCell>
        <mxCell id="rAUoanlOyvB0TRddyHbe-17" value="" style="group" vertex="1" connectable="0" parent="rAUoanlOyvB0TRddyHbe-7">
          <mxGeometry x="390" width="110" height="30" as="geometry" />
        </mxCell>
        <mxCell id="rAUoanlOyvB0TRddyHbe-18" value="4:" style="text;html=1;strokeColor=none;fillColor=none;align=right;verticalAlign=middle;whiteSpace=wrap;rounded=0;fontSize=14;" vertex="1" parent="rAUoanlOyvB0TRddyHbe-17">
          <mxGeometry width="30" height="30" as="geometry" />
        </mxCell>
        <mxCell id="rAUoanlOyvB0TRddyHbe-19" value="spider" style="strokeWidth=1;shadow=0;dashed=0;align=center;html=1;shape=mxgraph.mockup.text.textBox;fontColor=#666666;align=left;fontSize=17;spacingLeft=4;spacingTop=-3;whiteSpace=wrap;strokeColor=#666666;mainText=" vertex="1" parent="rAUoanlOyvB0TRddyHbe-17">
          <mxGeometry x="30" width="80" height="30" as="geometry" />
        </mxCell>
        <mxCell id="rAUoanlOyvB0TRddyHbe-20" value="" style="group" vertex="1" connectable="0" parent="rAUoanlOyvB0TRddyHbe-6">
          <mxGeometry y="40" width="500" height="30" as="geometry" />
        </mxCell>
        <mxCell id="rAUoanlOyvB0TRddyHbe-21" value="" style="group" vertex="1" connectable="0" parent="rAUoanlOyvB0TRddyHbe-20">
          <mxGeometry width="110" height="30" as="geometry" />
        </mxCell>
        <mxCell id="rAUoanlOyvB0TRddyHbe-22" value="5:" style="text;html=1;strokeColor=none;fillColor=none;align=right;verticalAlign=middle;whiteSpace=wrap;rounded=0;fontSize=14;" vertex="1" parent="rAUoanlOyvB0TRddyHbe-21">
          <mxGeometry width="30" height="30" as="geometry" />
        </mxCell>
        <mxCell id="rAUoanlOyvB0TRddyHbe-23" value="victory" style="strokeWidth=1;shadow=0;dashed=0;align=center;html=1;shape=mxgraph.mockup.text.textBox;fontColor=#666666;align=left;fontSize=17;spacingLeft=4;spacingTop=-3;whiteSpace=wrap;strokeColor=#666666;mainText=" vertex="1" parent="rAUoanlOyvB0TRddyHbe-21">
          <mxGeometry x="30" width="80" height="30" as="geometry" />
        </mxCell>
        <mxCell id="rAUoanlOyvB0TRddyHbe-24" value="" style="group" vertex="1" connectable="0" parent="rAUoanlOyvB0TRddyHbe-20">
          <mxGeometry x="130" width="110" height="30" as="geometry" />
        </mxCell>
        <mxCell id="rAUoanlOyvB0TRddyHbe-25" value="6:" style="text;html=1;strokeColor=none;fillColor=none;align=right;verticalAlign=middle;whiteSpace=wrap;rounded=0;fontSize=14;" vertex="1" parent="rAUoanlOyvB0TRddyHbe-24">
          <mxGeometry width="30" height="30" as="geometry" />
        </mxCell>
        <mxCell id="rAUoanlOyvB0TRddyHbe-26" value="firm" style="strokeWidth=1;shadow=0;dashed=0;align=center;html=1;shape=mxgraph.mockup.text.textBox;fontColor=#666666;align=left;fontSize=17;spacingLeft=4;spacingTop=-3;whiteSpace=wrap;strokeColor=#666666;mainText=" vertex="1" parent="rAUoanlOyvB0TRddyHbe-24">
          <mxGeometry x="30" width="80" height="30" as="geometry" />
        </mxCell>
        <mxCell id="rAUoanlOyvB0TRddyHbe-27" value="" style="group" vertex="1" connectable="0" parent="rAUoanlOyvB0TRddyHbe-20">
          <mxGeometry x="260" width="110" height="30" as="geometry" />
        </mxCell>
        <mxCell id="rAUoanlOyvB0TRddyHbe-28" value="7:" style="text;html=1;strokeColor=none;fillColor=none;align=right;verticalAlign=middle;whiteSpace=wrap;rounded=0;fontSize=14;" vertex="1" parent="rAUoanlOyvB0TRddyHbe-27">
          <mxGeometry width="30" height="30" as="geometry" />
        </mxCell>
        <mxCell id="rAUoanlOyvB0TRddyHbe-29" value="scan" style="strokeWidth=1;shadow=0;dashed=0;align=center;html=1;shape=mxgraph.mockup.text.textBox;fontColor=#666666;align=left;fontSize=17;spacingLeft=4;spacingTop=-3;whiteSpace=wrap;strokeColor=#666666;mainText=" vertex="1" parent="rAUoanlOyvB0TRddyHbe-27">
          <mxGeometry x="30" width="80" height="30" as="geometry" />
        </mxCell>
        <mxCell id="rAUoanlOyvB0TRddyHbe-30" value="" style="group" vertex="1" connectable="0" parent="rAUoanlOyvB0TRddyHbe-20">
          <mxGeometry x="390" width="110" height="30" as="geometry" />
        </mxCell>
        <mxCell id="rAUoanlOyvB0TRddyHbe-31" value="8:" style="text;html=1;strokeColor=none;fillColor=none;align=right;verticalAlign=middle;whiteSpace=wrap;rounded=0;fontSize=14;" vertex="1" parent="rAUoanlOyvB0TRddyHbe-30">
          <mxGeometry width="30" height="30" as="geometry" />
        </mxCell>
        <mxCell id="rAUoanlOyvB0TRddyHbe-32" value="reject" style="strokeWidth=1;shadow=0;dashed=0;align=center;html=1;shape=mxgraph.mockup.text.textBox;fontColor=#666666;align=left;fontSize=17;spacingLeft=4;spacingTop=-3;whiteSpace=wrap;strokeColor=#666666;mainText=" vertex="1" parent="rAUoanlOyvB0TRddyHbe-30">
          <mxGeometry x="30" width="80" height="30" as="geometry" />
        </mxCell>
        <mxCell id="rAUoanlOyvB0TRddyHbe-33" value="" style="group" vertex="1" connectable="0" parent="rAUoanlOyvB0TRddyHbe-6">
          <mxGeometry y="80" width="500" height="30" as="geometry" />
        </mxCell>
        <mxCell id="rAUoanlOyvB0TRddyHbe-34" value="" style="group" vertex="1" connectable="0" parent="rAUoanlOyvB0TRddyHbe-33">
          <mxGeometry width="110" height="30" as="geometry" />
        </mxCell>
        <mxCell id="rAUoanlOyvB0TRddyHbe-35" value="9:" style="text;html=1;strokeColor=none;fillColor=none;align=right;verticalAlign=middle;whiteSpace=wrap;rounded=0;fontSize=14;" vertex="1" parent="rAUoanlOyvB0TRddyHbe-34">
          <mxGeometry width="30" height="30" as="geometry" />
        </mxCell>
        <mxCell id="rAUoanlOyvB0TRddyHbe-36" value="pupil" style="strokeWidth=1;shadow=0;dashed=0;align=center;html=1;shape=mxgraph.mockup.text.textBox;fontColor=#666666;align=left;fontSize=17;spacingLeft=4;spacingTop=-3;whiteSpace=wrap;strokeColor=#666666;mainText=" vertex="1" parent="rAUoanlOyvB0TRddyHbe-34">
          <mxGeometry x="30" width="80" height="30" as="geometry" />
        </mxCell>
        <mxCell id="rAUoanlOyvB0TRddyHbe-37" value="" style="group" vertex="1" connectable="0" parent="rAUoanlOyvB0TRddyHbe-33">
          <mxGeometry x="130" width="110" height="30" as="geometry" />
        </mxCell>
        <mxCell id="rAUoanlOyvB0TRddyHbe-38" value="10:" style="text;html=1;strokeColor=none;fillColor=none;align=right;verticalAlign=middle;whiteSpace=wrap;rounded=0;fontSize=14;" vertex="1" parent="rAUoanlOyvB0TRddyHbe-37">
          <mxGeometry width="30" height="30" as="geometry" />
        </mxCell>
        <mxCell id="rAUoanlOyvB0TRddyHbe-39" value="promote" style="strokeWidth=1;shadow=0;dashed=0;align=center;html=1;shape=mxgraph.mockup.text.textBox;fontColor=#666666;align=left;fontSize=17;spacingLeft=4;spacingTop=-3;whiteSpace=wrap;strokeColor=#666666;mainText=" vertex="1" parent="rAUoanlOyvB0TRddyHbe-37">
          <mxGeometry x="30" width="80" height="30" as="geometry" />
        </mxCell>
        <mxCell id="rAUoanlOyvB0TRddyHbe-40" value="" style="group" vertex="1" connectable="0" parent="rAUoanlOyvB0TRddyHbe-33">
          <mxGeometry x="260" width="110" height="30" as="geometry" />
        </mxCell>
        <mxCell id="rAUoanlOyvB0TRddyHbe-41" value="11:" style="text;html=1;strokeColor=none;fillColor=none;align=right;verticalAlign=middle;whiteSpace=wrap;rounded=0;fontSize=14;" vertex="1" parent="rAUoanlOyvB0TRddyHbe-40">
          <mxGeometry width="30" height="30" as="geometry" />
        </mxCell>
        <mxCell id="rAUoanlOyvB0TRddyHbe-42" value="grain" style="strokeWidth=1;shadow=0;dashed=0;align=center;html=1;shape=mxgraph.mockup.text.textBox;fontColor=#666666;align=left;fontSize=17;spacingLeft=4;spacingTop=-3;whiteSpace=wrap;strokeColor=#666666;mainText=" vertex="1" parent="rAUoanlOyvB0TRddyHbe-40">
          <mxGeometry x="30" width="80" height="30" as="geometry" />
        </mxCell>
        <mxCell id="rAUoanlOyvB0TRddyHbe-43" value="" style="group" vertex="1" connectable="0" parent="rAUoanlOyvB0TRddyHbe-33">
          <mxGeometry x="390" width="110" height="30" as="geometry" />
        </mxCell>
        <mxCell id="rAUoanlOyvB0TRddyHbe-44" value="12:" style="text;html=1;strokeColor=none;fillColor=none;align=right;verticalAlign=middle;whiteSpace=wrap;rounded=0;fontSize=14;" vertex="1" parent="rAUoanlOyvB0TRddyHbe-43">
          <mxGeometry width="30" height="30" as="geometry" />
        </mxCell>
        <mxCell id="rAUoanlOyvB0TRddyHbe-45" value="display" style="strokeWidth=1;shadow=0;dashed=0;align=center;html=1;shape=mxgraph.mockup.text.textBox;fontColor=#666666;align=left;fontSize=17;spacingLeft=4;spacingTop=-3;whiteSpace=wrap;strokeColor=#666666;mainText=" vertex="1" parent="rAUoanlOyvB0TRddyHbe-43">
          <mxGeometry x="30" width="80" height="30" as="geometry" />
        </mxCell>
        <mxCell id="rAUoanlOyvB0TRddyHbe-46" value="" style="group" vertex="1" connectable="0" parent="rAUoanlOyvB0TRddyHbe-6">
          <mxGeometry y="120" width="500" height="30" as="geometry" />
        </mxCell>
        <mxCell id="rAUoanlOyvB0TRddyHbe-47" value="" style="group" vertex="1" connectable="0" parent="rAUoanlOyvB0TRddyHbe-46">
          <mxGeometry width="110" height="30" as="geometry" />
        </mxCell>
        <mxCell id="rAUoanlOyvB0TRddyHbe-48" value="13:" style="text;html=1;strokeColor=none;fillColor=none;align=right;verticalAlign=middle;whiteSpace=wrap;rounded=0;fontSize=14;" vertex="1" parent="rAUoanlOyvB0TRddyHbe-47">
          <mxGeometry width="30" height="30" as="geometry" />
        </mxCell>
        <mxCell id="rAUoanlOyvB0TRddyHbe-49" value="law" style="strokeWidth=1;shadow=0;dashed=0;align=center;html=1;shape=mxgraph.mockup.text.textBox;fontColor=#666666;align=left;fontSize=17;spacingLeft=4;spacingTop=-3;whiteSpace=wrap;strokeColor=#666666;mainText=" vertex="1" parent="rAUoanlOyvB0TRddyHbe-47">
          <mxGeometry x="30" width="80" height="30" as="geometry" />
        </mxCell>
        <mxCell id="rAUoanlOyvB0TRddyHbe-50" value="" style="group" vertex="1" connectable="0" parent="rAUoanlOyvB0TRddyHbe-46">
          <mxGeometry x="130" width="110" height="30" as="geometry" />
        </mxCell>
        <mxCell id="rAUoanlOyvB0TRddyHbe-51" value="14:" style="text;html=1;strokeColor=none;fillColor=none;align=right;verticalAlign=middle;whiteSpace=wrap;rounded=0;fontSize=14;" vertex="1" parent="rAUoanlOyvB0TRddyHbe-50">
          <mxGeometry width="30" height="30" as="geometry" />
        </mxCell>
        <mxCell id="rAUoanlOyvB0TRddyHbe-52" value="oblige" style="strokeWidth=1;shadow=0;dashed=0;align=center;html=1;shape=mxgraph.mockup.text.textBox;fontColor=#666666;align=left;fontSize=17;spacingLeft=4;spacingTop=-3;whiteSpace=wrap;strokeColor=#666666;mainText=" vertex="1" parent="rAUoanlOyvB0TRddyHbe-50">
          <mxGeometry x="30" width="80" height="30" as="geometry" />
        </mxCell>
        <mxCell id="rAUoanlOyvB0TRddyHbe-53" value="" style="group" vertex="1" connectable="0" parent="rAUoanlOyvB0TRddyHbe-46">
          <mxGeometry x="260" width="110" height="30" as="geometry" />
        </mxCell>
        <mxCell id="rAUoanlOyvB0TRddyHbe-54" value="15:" style="text;html=1;strokeColor=none;fillColor=none;align=right;verticalAlign=middle;whiteSpace=wrap;rounded=0;fontSize=14;" vertex="1" parent="rAUoanlOyvB0TRddyHbe-53">
          <mxGeometry width="30" height="30" as="geometry" />
        </mxCell>
        <mxCell id="rAUoanlOyvB0TRddyHbe-55" value="sword" style="strokeWidth=1;shadow=0;dashed=0;align=center;html=1;shape=mxgraph.mockup.text.textBox;fontColor=#666666;align=left;fontSize=17;spacingLeft=4;spacingTop=-3;whiteSpace=wrap;strokeColor=#666666;mainText=" vertex="1" parent="rAUoanlOyvB0TRddyHbe-53">
          <mxGeometry x="30" width="80" height="30" as="geometry" />
        </mxCell>
        <mxCell id="rAUoanlOyvB0TRddyHbe-56" value="" style="group" vertex="1" connectable="0" parent="rAUoanlOyvB0TRddyHbe-46">
          <mxGeometry x="390" width="110" height="30" as="geometry" />
        </mxCell>
        <mxCell id="rAUoanlOyvB0TRddyHbe-57" value="16:" style="text;html=1;strokeColor=none;fillColor=none;align=right;verticalAlign=middle;whiteSpace=wrap;rounded=0;fontSize=14;" vertex="1" parent="rAUoanlOyvB0TRddyHbe-56">
          <mxGeometry width="30" height="30" as="geometry" />
        </mxCell>
        <mxCell id="rAUoanlOyvB0TRddyHbe-58" value="flavor" style="strokeWidth=1;shadow=0;dashed=0;align=center;html=1;shape=mxgraph.mockup.text.textBox;fontColor=#666666;align=left;fontSize=17;spacingLeft=4;spacingTop=-3;whiteSpace=wrap;strokeColor=#666666;mainText=" vertex="1" parent="rAUoanlOyvB0TRddyHbe-56">
          <mxGeometry x="30" width="80" height="30" as="geometry" />
        </mxCell>
        <mxCell id="rAUoanlOyvB0TRddyHbe-59" value="" style="group" vertex="1" connectable="0" parent="rAUoanlOyvB0TRddyHbe-6">
          <mxGeometry y="160" width="500" height="30" as="geometry" />
        </mxCell>
        <mxCell id="rAUoanlOyvB0TRddyHbe-60" value="" style="group" vertex="1" connectable="0" parent="rAUoanlOyvB0TRddyHbe-59">
          <mxGeometry width="110" height="30" as="geometry" />
        </mxCell>
        <mxCell id="rAUoanlOyvB0TRddyHbe-61" value="17:" style="text;html=1;strokeColor=none;fillColor=none;align=right;verticalAlign=middle;whiteSpace=wrap;rounded=0;fontSize=14;" vertex="1" parent="rAUoanlOyvB0TRddyHbe-60">
          <mxGeometry width="30" height="30" as="geometry" />
        </mxCell>
        <mxCell id="rAUoanlOyvB0TRddyHbe-62" value="wolf" style="strokeWidth=1;shadow=0;dashed=0;align=center;html=1;shape=mxgraph.mockup.text.textBox;fontColor=#666666;align=left;fontSize=17;spacingLeft=4;spacingTop=-3;whiteSpace=wrap;strokeColor=#666666;mainText=" vertex="1" parent="rAUoanlOyvB0TRddyHbe-60">
          <mxGeometry x="30" width="80" height="30" as="geometry" />
        </mxCell>
        <mxCell id="rAUoanlOyvB0TRddyHbe-63" value="" style="group" vertex="1" connectable="0" parent="rAUoanlOyvB0TRddyHbe-59">
          <mxGeometry x="130" width="110" height="30" as="geometry" />
        </mxCell>
        <mxCell id="rAUoanlOyvB0TRddyHbe-64" value="18:" style="text;html=1;strokeColor=none;fillColor=none;align=right;verticalAlign=middle;whiteSpace=wrap;rounded=0;fontSize=14;" vertex="1" parent="rAUoanlOyvB0TRddyHbe-63">
          <mxGeometry width="30" height="30" as="geometry" />
        </mxCell>
        <mxCell id="rAUoanlOyvB0TRddyHbe-65" value="stairs" style="strokeWidth=1;shadow=0;dashed=0;align=center;html=1;shape=mxgraph.mockup.text.textBox;fontColor=#666666;align=left;fontSize=17;spacingLeft=4;spacingTop=-3;whiteSpace=wrap;strokeColor=#666666;mainText=" vertex="1" parent="rAUoanlOyvB0TRddyHbe-63">
          <mxGeometry x="30" width="80" height="30" as="geometry" />
        </mxCell>
        <mxCell id="rAUoanlOyvB0TRddyHbe-66" value="" style="group" vertex="1" connectable="0" parent="rAUoanlOyvB0TRddyHbe-59">
          <mxGeometry x="260" width="110" height="30" as="geometry" />
        </mxCell>
        <mxCell id="rAUoanlOyvB0TRddyHbe-67" value="19:" style="text;html=1;strokeColor=none;fillColor=none;align=right;verticalAlign=middle;whiteSpace=wrap;rounded=0;fontSize=14;" vertex="1" parent="rAUoanlOyvB0TRddyHbe-66">
          <mxGeometry width="30" height="30" as="geometry" />
        </mxCell>
        <mxCell id="rAUoanlOyvB0TRddyHbe-68" value="surge" style="strokeWidth=1;shadow=0;dashed=0;align=center;html=1;shape=mxgraph.mockup.text.textBox;fontColor=#666666;align=left;fontSize=17;spacingLeft=4;spacingTop=-3;whiteSpace=wrap;strokeColor=#666666;mainText=" vertex="1" parent="rAUoanlOyvB0TRddyHbe-66">
          <mxGeometry x="30" width="80" height="30" as="geometry" />
        </mxCell>
        <mxCell id="rAUoanlOyvB0TRddyHbe-69" value="" style="group" vertex="1" connectable="0" parent="rAUoanlOyvB0TRddyHbe-59">
          <mxGeometry x="390" width="110" height="30" as="geometry" />
        </mxCell>
        <mxCell id="rAUoanlOyvB0TRddyHbe-70" value="20:" style="text;html=1;strokeColor=none;fillColor=none;align=right;verticalAlign=middle;whiteSpace=wrap;rounded=0;fontSize=14;" vertex="1" parent="rAUoanlOyvB0TRddyHbe-69">
          <mxGeometry width="30" height="30" as="geometry" />
        </mxCell>
        <mxCell id="rAUoanlOyvB0TRddyHbe-71" value="kind" style="strokeWidth=1;shadow=0;dashed=0;align=center;html=1;shape=mxgraph.mockup.text.textBox;fontColor=#666666;align=left;fontSize=17;spacingLeft=4;spacingTop=-3;whiteSpace=wrap;strokeColor=#666666;mainText=" vertex="1" parent="rAUoanlOyvB0TRddyHbe-69">
          <mxGeometry x="30" width="80" height="30" as="geometry" />
        </mxCell>
        <mxCell id="rAUoanlOyvB0TRddyHbe-72" value="" style="group" vertex="1" connectable="0" parent="rAUoanlOyvB0TRddyHbe-6">
          <mxGeometry y="200" width="500" height="30" as="geometry" />
        </mxCell>
        <mxCell id="rAUoanlOyvB0TRddyHbe-73" value="" style="group" vertex="1" connectable="0" parent="rAUoanlOyvB0TRddyHbe-72">
          <mxGeometry width="110" height="30" as="geometry" />
        </mxCell>
        <mxCell id="rAUoanlOyvB0TRddyHbe-74" value="21:" style="text;html=1;strokeColor=none;fillColor=none;align=right;verticalAlign=middle;whiteSpace=wrap;rounded=0;fontSize=14;" vertex="1" parent="rAUoanlOyvB0TRddyHbe-73">
          <mxGeometry width="30" height="30" as="geometry" />
        </mxCell>
        <mxCell id="rAUoanlOyvB0TRddyHbe-75" value="crush" style="strokeWidth=1;shadow=0;dashed=0;align=center;html=1;shape=mxgraph.mockup.text.textBox;fontColor=#666666;align=left;fontSize=17;spacingLeft=4;spacingTop=-3;whiteSpace=wrap;strokeColor=#666666;mainText=" vertex="1" parent="rAUoanlOyvB0TRddyHbe-73">
          <mxGeometry x="30" width="80" height="30" as="geometry" />
        </mxCell>
        <mxCell id="rAUoanlOyvB0TRddyHbe-76" value="" style="group" vertex="1" connectable="0" parent="rAUoanlOyvB0TRddyHbe-72">
          <mxGeometry x="130" width="110" height="30" as="geometry" />
        </mxCell>
        <mxCell id="rAUoanlOyvB0TRddyHbe-77" value="22:" style="text;html=1;strokeColor=none;fillColor=none;align=right;verticalAlign=middle;whiteSpace=wrap;rounded=0;fontSize=14;" vertex="1" parent="rAUoanlOyvB0TRddyHbe-76">
          <mxGeometry width="30" height="30" as="geometry" />
        </mxCell>
        <mxCell id="rAUoanlOyvB0TRddyHbe-78" value="betray" style="strokeWidth=1;shadow=0;dashed=0;align=center;html=1;shape=mxgraph.mockup.text.textBox;fontColor=#666666;align=left;fontSize=17;spacingLeft=4;spacingTop=-3;whiteSpace=wrap;strokeColor=#666666;mainText=" vertex="1" parent="rAUoanlOyvB0TRddyHbe-76">
          <mxGeometry x="30" width="80" height="30" as="geometry" />
        </mxCell>
        <mxCell id="rAUoanlOyvB0TRddyHbe-79" value="" style="group" vertex="1" connectable="0" parent="rAUoanlOyvB0TRddyHbe-72">
          <mxGeometry x="260" width="110" height="30" as="geometry" />
        </mxCell>
        <mxCell id="rAUoanlOyvB0TRddyHbe-80" value="23:" style="text;html=1;strokeColor=none;fillColor=none;align=right;verticalAlign=middle;whiteSpace=wrap;rounded=0;fontSize=14;" vertex="1" parent="rAUoanlOyvB0TRddyHbe-79">
          <mxGeometry width="30" height="30" as="geometry" />
        </mxCell>
        <mxCell id="rAUoanlOyvB0TRddyHbe-81" value="proud" style="strokeWidth=1;shadow=0;dashed=0;align=center;html=1;shape=mxgraph.mockup.text.textBox;fontColor=#666666;align=left;fontSize=17;spacingLeft=4;spacingTop=-3;whiteSpace=wrap;strokeColor=#666666;mainText=" vertex="1" parent="rAUoanlOyvB0TRddyHbe-79">
          <mxGeometry x="30" width="80" height="30" as="geometry" />
        </mxCell>
        <mxCell id="rAUoanlOyvB0TRddyHbe-82" value="" style="group" vertex="1" connectable="0" parent="rAUoanlOyvB0TRddyHbe-72">
          <mxGeometry x="390" width="110" height="30" as="geometry" />
        </mxCell>
        <mxCell id="rAUoanlOyvB0TRddyHbe-83" value="24:" style="text;html=1;strokeColor=none;fillColor=none;align=right;verticalAlign=middle;whiteSpace=wrap;rounded=0;fontSize=14;" vertex="1" parent="rAUoanlOyvB0TRddyHbe-82">
          <mxGeometry width="30" height="30" as="geometry" />
        </mxCell>
        <mxCell id="rAUoanlOyvB0TRddyHbe-84" value="seat" style="strokeWidth=1;shadow=0;dashed=0;align=center;html=1;shape=mxgraph.mockup.text.textBox;fontColor=#666666;align=left;fontSize=17;spacingLeft=4;spacingTop=-3;whiteSpace=wrap;strokeColor=#666666;mainText=" vertex="1" parent="rAUoanlOyvB0TRddyHbe-82">
          <mxGeometry x="30" width="80" height="30" as="geometry" />
        </mxCell>
        <mxCell id="rAUoanlOyvB0TRddyHbe-85" value="" style="group" vertex="1" connectable="0" parent="1">
          <mxGeometry x="735" y="1150" width="570" height="30" as="geometry" />
        </mxCell>
        <mxCell id="rAUoanlOyvB0TRddyHbe-86" value="Previous" style="strokeWidth=1;shadow=0;dashed=0;align=center;html=1;shape=mxgraph.mockup.buttons.button;strokeColor=#666666;fontColor=#ffffff;mainText=;buttonStyle=round;fontSize=17;fontStyle=1;fillColor=#008cff;whiteSpace=wrap;" vertex="1" parent="rAUoanlOyvB0TRddyHbe-85">
          <mxGeometry width="100" height="30" as="geometry" />
        </mxCell>
        <mxCell id="rAUoanlOyvB0TRddyHbe-87" value="Next" style="strokeWidth=1;shadow=0;dashed=0;align=center;html=1;shape=mxgraph.mockup.buttons.button;strokeColor=#666666;fontColor=#ffffff;mainText=;buttonStyle=round;fontSize=17;fontStyle=1;fillColor=#008cff;whiteSpace=wrap;" vertex="1" parent="rAUoanlOyvB0TRddyHbe-85">
          <mxGeometry x="110" width="100" height="30" as="geometry" />
        </mxCell>
        <mxCell id="rAUoanlOyvB0TRddyHbe-88" value="Finish" style="strokeWidth=1;shadow=0;dashed=0;align=center;html=1;shape=mxgraph.mockup.buttons.button;strokeColor=#666666;fontColor=#ffffff;mainText=;buttonStyle=round;fontSize=17;fontStyle=1;fillColor=#008cff;whiteSpace=wrap;" vertex="1" parent="rAUoanlOyvB0TRddyHbe-85">
          <mxGeometry x="470" width="100" height="30" as="geometry" />
        </mxCell>
        <mxCell id="rAUoanlOyvB0TRddyHbe-89" value="Cancel" style="strokeWidth=1;shadow=0;dashed=0;align=center;html=1;shape=mxgraph.mockup.buttons.button;strokeColor=#666666;fontColor=#ffffff;mainText=;buttonStyle=round;fontSize=17;fontStyle=1;fillColor=#008cff;whiteSpace=wrap;" vertex="1" parent="rAUoanlOyvB0TRddyHbe-85">
          <mxGeometry x="365" width="100" height="30" as="geometry" />
        </mxCell>
        <mxCell id="rAUoanlOyvB0TRddyHbe-90" value="Enter the 24 words an the passphrase from the wallet you wish to restore in the form below." style="text;html=1;strokeColor=none;fillColor=none;align=left;verticalAlign=middle;whiteSpace=wrap;rounded=0;fontSize=14;" vertex="1" parent="1">
          <mxGeometry x="740" y="760" width="560" height="90" as="geometry" />
        </mxCell>
        <mxCell id="rAUoanlOyvB0TRddyHbe-91" value="Passphrase:" style="text;html=1;strokeColor=none;fillColor=none;align=right;verticalAlign=middle;whiteSpace=wrap;rounded=0;fontSize=14;" vertex="1" parent="1">
          <mxGeometry x="740" y="1100" width="140" height="30" as="geometry" />
        </mxCell>
        <mxCell id="rAUoanlOyvB0TRddyHbe-92" value="********" style="strokeWidth=1;shadow=0;dashed=0;align=center;html=1;shape=mxgraph.mockup.forms.pwField;strokeColor=#999999;mainText=;align=left;fontColor=#666666;fontSize=17;spacingLeft=3;" vertex="1" parent="1">
          <mxGeometry x="890" y="1100" width="360" height="30" as="geometry" />
        </mxCell>
        <mxCell id="rAUoanlOyvB0TRddyHbe-94" style="edgeStyle=orthogonalEdgeStyle;rounded=0;orthogonalLoop=1;jettySize=auto;html=1;entryX=0.487;entryY=0.006;entryDx=0;entryDy=0;entryPerimeter=0;" edge="1" parent="1" source="2kLd2aaRMBB2WDpWf91q-10" target="rAUoanlOyvB0TRddyHbe-2">
          <mxGeometry relative="1" as="geometry" />
        </mxCell>
        <mxCell id="rAUoanlOyvB0TRddyHbe-95" style="edgeStyle=orthogonalEdgeStyle;rounded=0;orthogonalLoop=1;jettySize=auto;html=1;entryX=1;entryY=0.156;entryDx=0;entryDy=0;entryPerimeter=0;" edge="1" parent="1" source="rAUoanlOyvB0TRddyHbe-2" target="2kLd2aaRMBB2WDpWf91q-118">
          <mxGeometry relative="1" as="geometry" />
        </mxCell>
      </root>
    </mxGraphModel>
  </diagram>
</mxfile>
